<svg width="235" height="234" viewBox="0 0 235 234" fill="none" xmlns="http://www.w3.org/2000/svg">
<path d="M138.199 159.682L189.873 177.664C194.052 179.121 198.476 179.741 202.894 179.488C207.312 179.236 211.637 178.117 215.622 176.194C219.607 174.271 223.174 171.583 226.119 168.283C229.064 164.983 231.331 161.135 232.788 156.96C234.245 152.784 234.865 148.363 234.613 143.948C234.361 139.533 233.241 135.211 231.317 131.228C229.393 127.246 226.703 123.681 223.401 120.738C220.098 117.794 216.248 115.53 212.07 114.073L160.395 96.1015L178.379 44.4608C181.227 36.0508 180.635 26.8571 176.733 18.8809C172.831 10.9046 165.934 4.79153 157.544 1.87218C149.153 -1.04717 139.949 -0.536503 131.933 3.29314C123.918 7.12278 117.741 13.9613 114.746 22.3202L96.7112 73.9301L45.0471 55.9583C40.8583 54.4596 36.4139 53.8049 31.9706 54.032C27.5272 54.259 23.1728 55.3633 19.1588 57.2811C15.1448 59.199 11.5506 61.8923 8.58386 65.2058C5.61707 68.5192 3.33629 72.3871 1.87335 76.5862C0.410416 80.7852 -0.205781 85.2322 0.0603112 89.6705C0.326404 94.1088 1.4697 98.4505 3.42386 102.445C5.37803 106.439 8.10455 110.007 11.446 112.943C14.7874 115.879 18.6776 118.124 22.892 119.549L74.5664 137.531L56.5417 189.213C53.6051 197.647 54.1414 206.902 58.0326 214.941C61.9238 222.979 68.8512 229.144 77.2908 232.079C85.7303 235.014 94.9908 234.478 103.035 230.589C111.079 226.7 117.248 219.778 120.185 211.344L138.199 159.682Z" fill="url(#paint0_radial_290_5)"/>
<path d="M137.725 158.489L189.852 176.625C193.952 178.051 198.293 178.657 202.627 178.406C206.96 178.156 211.202 177.055 215.11 175.166C219.018 173.277 222.516 170.638 225.403 167.399C228.29 164.159 230.511 160.383 231.938 156.286C233.365 152.189 233.97 147.851 233.72 143.52C233.469 139.189 232.367 134.95 230.477 131.045C228.588 127.139 225.947 123.644 222.705 120.759C219.463 117.873 215.685 115.654 211.585 114.228L159.457 96.0918L177.513 44.2452C180.395 35.9709 179.87 26.8913 176.053 19.0039C172.236 11.1165 165.44 5.06752 157.16 2.18746C148.881 -0.692592 139.795 -0.167727 131.903 3.64662C124.01 7.46097 117.957 14.2524 115.075 22.5267L97.0196 74.3733L44.9537 56.2676C36.6739 53.3875 27.5884 53.9124 19.6959 57.7267C11.8034 61.5411 5.75024 68.3325 2.8683 76.6068C-0.0136368 84.8812 0.511698 93.9608 4.32854 101.848C8.14539 109.735 14.9411 115.785 23.2209 118.665L75.2765 136.77L57.1282 188.874C55.6134 192.992 54.9341 197.369 55.1301 201.752C55.3262 206.134 56.3937 210.434 58.2701 214.4C60.1466 218.366 62.7944 221.919 66.0594 224.851C69.3244 227.783 73.1411 230.037 77.2867 231.479C81.4323 232.922 85.8239 233.525 90.2053 233.254C94.5866 232.982 98.8699 231.842 102.806 229.899C106.741 227.955 110.25 225.248 113.128 221.935C116.005 218.622 118.194 214.77 119.566 210.603L137.725 158.489Z" fill="url(#paint1_radial_290_5)"/>
<path d="M137.241 157.304L189.822 175.595C193.862 177.079 198.158 177.744 202.458 177.552C206.759 177.359 210.978 176.313 214.87 174.474C218.762 172.635 222.248 170.039 225.125 166.84C228.002 163.64 230.213 159.899 231.629 155.836C233.044 151.774 233.636 147.47 233.37 143.176C233.103 138.882 231.984 134.685 230.077 130.828C228.17 126.971 225.514 123.532 222.263 120.712C219.012 117.892 215.232 115.747 211.142 114.402L158.613 96.1112L176.741 44.0485C178.141 40.0298 178.735 35.7749 178.489 31.5268C178.244 27.2787 177.163 23.1205 175.31 19.2896C173.456 15.4588 170.866 12.0303 167.687 9.19991C164.507 6.36951 160.801 4.19261 156.78 2.79359C148.658 -0.0318693 139.747 0.482475 132.005 4.22347C124.263 7.96447 118.325 14.6257 115.498 22.7417L97.3698 74.8044L44.9126 56.5546C36.8162 53.8293 27.9705 54.4075 20.2983 58.1636C12.626 61.9196 6.74736 68.55 3.93968 76.6136C1.132 84.6772 1.62228 93.5222 5.30411 101.227C8.98595 108.931 15.5618 114.872 23.6022 117.758L76.0491 136.007L57.7359 188.574C54.9086 196.691 55.4233 205.597 59.1667 213.333C62.9102 221.07 69.5759 227.004 77.6972 229.829C85.8185 232.655 94.7304 232.14 102.472 228.399C110.214 224.658 116.152 217.997 118.979 209.881L137.241 157.304Z" fill="url(#paint2_radial_290_5)"/>
<path d="M136.757 156.1L189.801 174.556C197.764 177.326 206.502 176.82 214.092 173.152C221.682 169.483 227.503 162.952 230.275 154.994C233.046 147.036 232.54 138.304 228.869 130.719C225.198 123.134 218.662 117.317 210.7 114.547L157.655 96.1019L175.866 43.8332C178.637 35.8756 178.131 27.1436 174.46 19.5583C170.789 11.973 164.253 6.1558 156.291 3.3863C148.328 0.616806 139.59 1.12194 132 4.79055C124.41 8.45916 118.589 14.9907 115.817 22.9484L97.6172 75.217L44.779 56.8335C36.8527 54.2071 28.2107 54.8024 20.7199 58.4907C13.2291 62.1789 7.49078 68.6641 4.74481 76.5451C1.99883 84.4262 2.46556 93.0704 6.04411 100.611C9.62266 108.151 16.0258 113.981 23.8702 116.842L76.7189 135.216L58.2408 188.256C55.4695 196.214 55.9749 204.946 59.646 212.531C63.317 220.116 69.8529 225.934 77.8158 228.703C85.7787 231.473 94.5163 230.968 102.107 227.299C109.697 223.63 115.518 217.099 118.289 209.141L136.757 156.1Z" fill="url(#paint3_radial_290_5)"/>
<path d="M136.283 154.916L189.77 173.516C193.65 174.931 197.773 175.56 201.899 175.368C206.025 175.176 210.071 174.166 213.803 172.397C217.535 170.627 220.877 168.134 223.636 165.062C226.395 161.99 228.515 158.401 229.873 154.503C231.231 150.605 231.8 146.475 231.547 142.356C231.294 138.236 230.223 134.207 228.398 130.504C226.572 126.802 224.028 123.499 220.914 120.787C217.8 118.076 214.177 116.011 210.256 114.711L156.759 96.1014L175.041 43.6063C177.617 35.8439 177.034 27.3803 173.417 20.0441C169.801 12.7079 163.441 7.08813 155.712 4.39917C147.984 1.71021 139.507 2.16785 132.113 5.67325C124.719 9.17864 119.003 15.4504 116.198 23.1333L97.9155 75.6283L44.6859 57.1006C36.9183 54.5262 28.4493 55.1091 21.1083 58.7234C13.7673 62.3377 8.14376 68.6932 5.45303 76.4167C2.76231 84.1402 3.22026 92.6116 6.72795 100C10.2356 107.389 16.5116 113.102 24.1995 115.905L77.4292 134.433L58.7966 187.957C57.381 191.835 56.7511 195.955 56.9434 200.079C57.1357 204.202 58.1465 208.246 59.9169 211.975C61.6873 215.704 64.1819 219.045 67.2558 221.802C70.3297 224.559 73.9217 226.677 77.8225 228.034C81.7232 229.392 85.855 229.96 89.9776 229.707C94.1003 229.454 98.1314 228.384 101.837 226.56C105.542 224.736 108.847 222.193 111.56 219.081C114.273 215.969 116.34 212.348 117.64 208.43L136.283 154.916Z" fill="url(#paint4_radial_290_5)"/>
<path d="M135.85 153.722L189.801 172.486C193.588 173.803 197.598 174.361 201.601 174.129C205.604 173.897 209.522 172.879 213.132 171.134C216.741 169.389 219.972 166.95 222.638 163.957C225.304 160.964 227.355 157.476 228.673 153.691C229.99 149.906 230.549 145.899 230.316 141.899C230.084 137.898 229.066 133.983 227.319 130.375C225.573 126.768 223.133 123.54 220.138 120.875C217.143 118.211 213.652 116.161 209.865 114.845L155.914 96.0805L174.269 43.3899C176.929 35.7461 176.443 27.3592 172.915 20.0741C169.388 12.789 163.11 7.20248 155.461 4.54355C147.812 1.88462 139.42 2.37111 132.13 5.89591C124.84 9.42071 119.25 15.6951 116.589 23.3388L98.2348 76.0192L44.6136 57.368C36.9648 54.7091 28.5726 55.1955 21.2827 58.7203C13.9929 62.2451 8.40255 68.5196 5.74187 76.1633C3.0812 83.8071 3.56814 92.194 7.09524 99.4791C10.6223 106.764 16.9007 112.351 24.5495 115.01L78.1707 133.63L59.3734 187.607C56.7127 195.251 57.1994 203.638 60.7265 210.923C64.2536 218.208 70.5322 223.795 78.181 226.453C85.8297 229.112 94.2223 228.626 101.512 225.101C108.802 221.576 114.392 215.302 117.053 207.658L135.85 153.722Z" fill="url(#paint5_radial_290_5)"/>
<path d="M135.315 152.529L189.719 171.448C197.205 174.052 205.42 173.578 212.556 170.129C219.692 166.681 225.166 160.54 227.772 153.059C230.378 145.578 229.903 137.368 226.452 130.236C223.002 123.105 216.857 117.635 209.371 115.031L154.967 96.1122L173.393 43.2157C175.999 35.7344 175.525 27.5249 172.074 20.3933C168.623 13.2616 162.479 7.79198 154.993 5.18764C147.506 2.58331 139.292 3.05765 132.155 6.5062C125.019 9.95475 119.546 16.095 116.94 23.5763L98.5134 76.4728L44.5112 57.6878C37.025 55.0835 28.81 55.5578 21.6737 59.0064C14.5374 62.4549 9.0643 68.5952 6.45826 76.0765C3.85222 83.5578 4.32687 91.7673 7.77768 98.899C11.2285 106.031 17.3728 111.5 24.859 114.105L78.8715 132.89L59.9095 187.33C58.6198 191.034 58.0726 194.955 58.2994 198.87C58.5261 202.785 59.5222 206.617 61.2309 210.147C62.9396 213.677 65.3273 216.837 68.2578 219.445C71.1882 222.053 74.6041 224.059 78.3102 225.348C82.0163 226.637 85.9403 227.183 89.8578 226.957C93.7754 226.73 97.6098 225.735 101.142 224.027C104.675 222.32 107.836 219.933 110.446 217.005C113.056 214.076 115.063 210.663 116.353 206.959L135.315 152.529Z" fill="url(#paint6_radial_290_5)"/>
<path d="M134.821 151.334L189.678 170.418C197.006 172.966 205.047 172.501 212.032 169.125C219.016 165.749 224.373 159.738 226.923 152.415C229.473 145.092 229.007 137.057 225.629 130.077C222.251 123.096 216.236 117.743 208.908 115.195L154.051 96.1116L172.591 43.0092C173.853 39.3832 174.389 35.5442 174.167 31.7113C173.945 27.8785 172.97 24.1269 171.297 20.6707C169.624 17.2145 167.287 14.1215 164.418 11.5681C161.549 9.01472 158.205 7.05108 154.576 5.78926C150.948 4.52743 147.106 3.99205 143.271 4.21387C139.436 4.4357 135.682 5.41035 132.223 7.08206C128.765 8.75376 125.67 11.0898 123.115 13.9569C120.56 16.824 118.595 20.166 117.332 23.792L98.8438 76.8942L44.4398 57.9651C37.1121 55.4168 29.0713 55.8818 22.0866 59.2579C15.102 62.6341 9.74562 68.6448 7.19558 75.9678C4.64554 83.2908 5.11073 91.3262 8.4891 98.3063C11.8675 105.286 17.8823 110.639 25.21 113.188L79.6035 132.107L60.4871 187.01C59.2066 190.64 58.6557 194.486 58.8662 198.329C59.0767 202.171 60.0444 205.934 61.7137 209.402C63.383 212.87 65.721 215.975 68.5937 218.538C71.4665 221.101 74.8174 223.071 78.4541 224.337C82.0907 225.603 85.9417 226.138 89.7859 225.913C93.6302 225.688 97.3923 224.706 100.856 223.025C104.32 221.343 107.417 218.995 109.971 216.114C112.524 213.233 114.483 209.877 115.736 206.238L134.821 151.334Z" fill="url(#paint7_radial_290_5)"/>
<path d="M134.358 150.099L189.678 169.336C193.228 170.571 196.985 171.094 200.737 170.877C204.489 170.66 208.161 169.706 211.544 168.071C214.926 166.435 217.954 164.15 220.453 161.346C222.952 158.541 224.874 155.272 226.109 151.725C227.344 148.178 227.868 144.423 227.65 140.674C227.433 136.924 226.479 133.255 224.843 129.874C223.206 126.493 220.919 123.468 218.113 120.97C215.307 118.473 212.035 116.552 208.486 115.318L153.176 96.0802L171.716 42.7617C174.211 35.5984 173.757 27.7379 170.453 20.9094C167.149 14.0808 161.266 8.84348 154.098 6.3497C146.93 3.85593 139.064 4.30988 132.231 7.61172C125.398 10.9136 120.157 16.7928 117.662 23.9561L99.122 77.2746L44.3265 58.2117C37.1585 55.7193 29.2935 56.1746 22.4614 59.4774C15.6293 62.7802 10.39 68.66 7.89597 75.8233C5.40194 82.9865 5.85737 90.8466 9.16234 97.6742C12.4673 104.502 18.3509 109.738 25.5189 112.23L80.3042 131.293L61.0228 186.66C58.5274 193.823 58.9817 201.684 62.2857 208.512C65.5897 215.341 71.4728 220.578 78.6407 223.072C85.8087 225.566 93.6743 225.112 100.507 221.81C107.34 218.508 112.581 212.629 115.077 205.465L134.358 150.099Z" fill="url(#paint8_radial_290_5)"/>
<path d="M133.873 148.946L189.646 168.339C193.116 169.546 196.79 170.058 200.459 169.846C204.127 169.634 207.717 168.702 211.025 167.104C214.333 165.505 217.293 163.271 219.737 160.529C222.181 157.787 224.06 154.591 225.268 151.123C226.476 147.655 226.989 143.984 226.777 140.318C226.565 136.652 225.632 133.064 224.033 129.758C222.433 126.453 220.198 123.494 217.454 121.052C214.71 118.61 211.512 116.732 208.042 115.524L152.33 96.1219L170.973 42.5976C172.207 39.1228 172.741 35.4383 172.545 31.7563C172.349 28.0743 171.427 24.4675 169.831 21.1432C168.234 17.8189 165.996 14.8428 163.245 12.3862C160.493 9.92965 157.283 8.04105 153.798 6.82915C150.313 5.61724 146.623 5.10593 142.94 5.32463C139.257 5.54332 135.654 6.48774 132.337 8.10347C129.021 9.71921 126.057 11.9744 123.616 14.7392C121.175 17.5041 119.305 20.7241 118.114 24.2139L99.4708 77.7382L44.2945 58.5416C37.285 56.1025 29.5928 56.5459 22.9105 59.7744C16.2281 63.0029 11.1026 68.7519 8.66188 75.7569C6.2211 82.7618 6.66494 90.4488 9.89555 97.1268C13.1262 103.805 18.879 108.927 25.8885 111.366L81.0753 130.552L61.6187 186.393C59.2325 193.384 59.7113 201.035 62.9505 207.676C66.1896 214.316 71.9262 219.405 78.9075 221.833C85.8887 224.261 93.5477 223.83 100.212 220.635C106.876 217.439 112.005 211.738 114.478 204.776L133.873 148.946Z" fill="url(#paint9_radial_290_5)"/>
<path d="M133.399 147.752L189.626 167.309C196.44 169.547 203.861 169.021 210.291 165.845C216.721 162.668 221.646 157.094 224.004 150.325C226.362 143.555 225.965 136.131 222.898 129.65C219.832 123.17 214.342 118.153 207.609 115.679L151.383 96.122L170.097 42.3917C171.351 38.9845 171.913 35.3619 171.751 31.7353C171.589 28.1087 170.706 24.5506 169.153 21.2688C167.6 17.987 165.409 15.0471 162.706 12.6208C160.004 10.1944 156.846 8.3301 153.415 7.13669C149.984 5.94328 146.35 5.44461 142.725 5.66986C139.099 5.89511 135.555 6.83972 132.298 8.44859C129.042 10.0574 126.139 12.2984 123.758 15.0405C121.378 17.7826 119.568 20.9712 118.433 24.4199L99.7183 78.1501L44.099 58.8195C37.2848 56.5814 29.8635 57.1074 23.4336 60.2842C17.0037 63.461 12.0796 69.0344 9.72166 75.8041C7.36367 82.5738 7.76053 89.9982 10.8268 96.4783C13.8931 102.958 19.3834 107.976 26.1155 110.45L81.6832 129.781L62.1135 186.084C59.8739 192.894 60.4004 200.31 63.5792 206.736C66.7581 213.162 72.3351 218.083 79.1093 220.439C85.8834 222.796 93.3127 222.399 99.797 219.335C106.281 216.27 111.302 210.783 113.778 204.056L133.399 147.752Z" fill="url(#paint10_radial_290_5)"/>
<path d="M132.915 146.558L189.564 166.269C192.878 167.423 196.387 167.912 199.89 167.71C203.393 167.508 206.822 166.618 209.981 165.092C213.14 163.565 215.968 161.432 218.302 158.814C220.636 156.195 222.431 153.143 223.585 149.831C224.739 146.52 225.228 143.013 225.026 139.512C224.824 136.012 223.934 132.585 222.406 129.428C220.879 126.271 218.744 123.445 216.124 121.113C213.504 118.78 210.45 116.986 207.136 115.833L150.487 96.1115L169.274 42.1754C170.427 38.8637 170.916 35.3575 170.713 31.8569C170.51 28.3563 169.619 24.9299 168.091 21.7733C166.564 18.6168 164.428 15.7919 161.808 13.4599C159.188 11.128 156.134 9.33464 152.82 8.1823C149.506 7.02996 145.997 6.54116 142.494 6.74388C138.992 6.94659 135.563 7.83688 132.404 9.36378C129.246 10.8907 126.419 13.0243 124.085 15.6429C121.752 18.2616 119.957 21.3139 118.804 24.6256L100.017 78.5617L44.0579 59.0973C37.3652 56.7701 30.0218 57.1951 23.6427 60.2788C17.2636 63.3625 12.3714 68.8523 10.0427 75.5406C7.71389 82.2289 8.13905 89.5677 11.2248 95.9427C14.3105 102.318 19.8042 107.206 26.4968 109.534L82.4559 128.998L62.6802 185.775C61.4325 189.11 60.8647 192.66 61.0102 196.217C61.1557 199.774 62.0116 203.266 63.5273 206.488C65.0431 209.709 67.1882 212.595 69.8365 214.976C72.4848 217.357 75.5829 219.185 78.9485 220.352C82.314 221.519 85.8791 222.001 89.4339 221.771C92.9888 221.541 96.4617 220.602 99.6483 219.011C102.835 217.42 105.671 215.208 107.99 212.505C110.308 209.802 112.063 206.664 113.15 203.273L132.915 146.558Z" fill="url(#paint11_radial_290_5)"/>
<path d="M132.441 145.364L189.574 165.24C196.107 167.513 203.276 167.099 209.503 164.089C215.73 161.08 220.507 155.722 222.781 149.193C225.055 142.664 224.641 135.5 221.63 129.277C218.618 123.054 213.256 118.281 206.723 116.008L149.58 96.1318L168.449 41.9796C170.723 35.451 170.309 28.2871 167.298 22.0637C164.286 15.8403 158.924 11.0672 152.391 8.79454C145.859 6.52189 138.69 6.93583 132.462 9.94523C126.235 12.9546 121.459 18.3131 119.185 24.8416L100.315 78.9938L43.975 59.4369C40.7403 58.3116 37.3153 57.8339 33.8959 58.0314C30.4765 58.2288 27.1294 59.0973 24.0459 60.5874C20.9624 62.0775 18.2026 64.16 15.9244 66.716C13.6462 69.2719 11.8942 72.2512 10.7682 75.4838C9.64217 78.7165 9.16422 82.139 9.36178 85.5562C9.55934 88.9734 10.4286 92.3183 11.9196 95.3998C13.4107 98.4813 15.4945 101.239 18.052 103.516C20.6096 105.793 23.5908 107.544 26.8255 108.669L83.1764 128.226L63.2357 185.456C62.1097 188.688 61.6317 192.111 61.8293 195.528C62.0268 198.945 62.8961 202.29 64.3872 205.372C65.8782 208.453 67.962 211.211 70.5196 213.488C73.0771 215.765 76.0586 217.516 79.2933 218.641C82.528 219.766 85.9527 220.244 89.3721 220.046C92.7916 219.849 96.1386 218.98 99.2222 217.49C102.306 216 105.065 213.918 107.344 211.362C109.622 208.806 111.374 205.826 112.5 202.594L132.441 145.364Z" fill="url(#paint12_radial_290_5)"/>
<path d="M131.957 144.17L189.544 164.2C195.901 166.35 202.851 165.904 208.881 162.958C214.911 160.013 219.532 154.806 221.739 148.472C223.946 142.137 223.56 135.188 220.665 129.137C217.77 123.086 212.6 118.423 206.281 116.162L148.684 96.1315L167.626 41.7735C169.732 35.4316 169.256 28.5162 166.301 22.5222C163.346 16.5282 158.15 11.937 151.835 9.74096C145.52 7.54496 138.594 7.92054 132.554 10.7866C126.514 13.6527 121.845 18.779 119.556 25.0574L100.625 79.4154L43.8831 59.6732C37.5371 57.5687 30.6173 58.0442 24.6194 60.9972C18.6214 63.9502 14.0272 69.1433 11.8298 75.4541C9.63233 81.7649 10.0082 88.6864 12.8761 94.7225C15.744 100.759 20.8736 105.424 27.1561 107.711L83.8879 127.443L63.7516 185.147C61.5999 191.5 62.0464 198.445 64.9941 204.471C67.9417 210.497 73.1519 215.115 79.4904 217.321C85.8288 219.526 92.7822 219.14 98.8373 216.247C104.892 213.354 109.559 208.188 111.821 201.873L131.957 144.17Z" fill="url(#paint13_radial_290_5)"/>
<path d="M131.474 142.976L189.524 163.171C192.602 164.242 195.86 164.696 199.114 164.508C202.367 164.32 205.552 163.493 208.486 162.075C211.42 160.657 214.045 158.676 216.213 156.244C218.38 153.812 220.047 150.977 221.118 147.901C222.19 144.825 222.644 141.569 222.456 138.317C222.268 135.066 221.441 131.884 220.022 128.952C218.603 126.02 216.621 123.396 214.187 121.23C211.753 119.063 208.917 117.397 205.839 116.327L147.789 96.1318L166.792 41.5781C168.893 35.3833 168.46 28.6097 165.586 22.7327C162.713 16.8557 157.632 12.3513 151.451 10.2008C145.269 8.05022 138.488 8.42763 132.583 11.2508C126.679 14.074 122.13 19.1143 119.928 25.2738L100.924 79.8275L43.801 59.9515C40.7165 58.8499 37.4442 58.3695 34.173 58.5381C30.9018 58.7067 27.6964 59.5208 24.7417 60.9337C21.7869 62.3465 19.1412 64.3302 16.9574 66.77C14.7736 69.2097 13.0949 72.0575 12.018 75.149C10.941 78.2404 10.4874 81.5144 10.6829 84.7819C10.8785 88.0495 11.7196 91.246 13.1576 94.1871C14.5956 97.1282 16.6022 99.7558 19.0614 101.918C21.5207 104.08 24.3839 105.734 27.4861 106.785L84.6092 126.661L64.3494 184.828C63.2471 187.91 62.7662 191.18 62.9349 194.449C63.1036 197.719 63.9184 200.922 65.3321 203.875C66.7459 206.828 68.7309 209.471 71.1723 211.654C73.6137 213.836 76.4634 215.514 79.5568 216.59C82.6503 217.666 85.9264 218.12 89.1961 217.924C92.4658 217.729 95.6643 216.888 98.6073 215.451C101.55 214.014 104.18 212.009 106.343 209.551C108.507 207.094 110.162 204.232 111.214 201.132L131.474 142.976Z" fill="url(#paint14_radial_290_5)"/>
<path d="M130.998 141.783L189.502 162.132C195.558 164.239 202.203 163.854 207.976 161.064C213.748 158.274 218.175 153.306 220.283 147.254C222.391 141.202 222.006 134.561 219.214 128.792C216.421 123.023 211.451 118.599 205.394 116.493L146.891 96.1431L165.966 41.363C167.01 38.3663 167.453 35.1936 167.269 32.0258C167.086 28.8581 166.28 25.7575 164.897 22.9011C163.515 20.0447 161.583 17.4883 159.212 15.378C156.841 13.2677 154.077 11.6448 151.078 10.602C148.079 9.55914 144.904 9.1168 141.735 9.30014C138.565 9.48348 135.462 10.2889 132.604 11.6705C129.746 13.0521 127.188 14.9829 125.076 17.3525C122.964 19.722 121.34 22.484 120.297 25.4808L101.221 80.2506L43.707 60.2509C37.6868 58.2846 31.135 58.7569 25.4594 61.5664C19.7839 64.3758 15.4376 69.2982 13.3548 75.2756C11.272 81.2531 11.6188 87.8086 14.3207 93.5333C17.0225 99.258 21.8638 103.695 27.8041 105.891L85.3287 125.89L64.9042 184.561C63.8607 187.558 63.418 190.731 63.6014 193.899C63.7849 197.066 64.5909 200.167 65.9735 203.023C67.356 205.88 69.2879 208.436 71.659 210.546C74.0301 212.657 76.7938 214.279 79.7925 215.322C82.7913 216.365 85.9661 216.807 89.1359 216.624C92.3056 216.441 95.4084 215.635 98.2667 214.254C101.125 212.872 103.683 210.941 105.795 208.572C107.906 206.202 109.53 203.44 110.574 200.444L130.998 141.783Z" fill="url(#paint15_radial_290_5)"/>
<path d="M130.515 140.589L189.472 161.093C192.415 162.209 195.552 162.724 198.698 162.607C201.844 162.49 204.934 161.745 207.787 160.414C210.639 159.083 213.196 157.193 215.305 154.858C217.414 152.522 219.033 149.788 220.066 146.816C221.099 143.844 221.526 140.696 221.32 137.557C221.115 134.417 220.281 131.351 218.869 128.539C217.457 125.727 215.495 123.227 213.1 121.186C210.704 119.145 207.923 117.605 204.921 116.657L145.965 96.1429L165.112 41.157C166.96 35.3164 166.455 28.9861 163.706 23.5114C160.957 18.0367 156.18 13.8491 150.39 11.8386C144.6 9.82819 138.254 10.1533 132.7 12.745C127.146 15.3366 122.822 19.9903 120.648 25.7173L101.49 80.7032L43.615 60.5493C37.7532 58.6423 31.3769 59.1089 25.8555 61.8487C20.3341 64.5885 16.108 69.383 14.0851 75.2024C12.0622 81.0218 12.4037 87.402 15.0363 92.9725C17.669 98.543 22.3828 102.86 28.1652 104.995L86.071 125.139L65.4713 184.242C63.6239 190.083 64.1285 196.413 66.8777 201.888C69.6269 207.362 74.4042 211.55 80.1941 213.56C85.984 215.571 92.3302 215.246 97.884 212.654C103.438 210.062 107.761 205.409 109.936 199.682L130.515 140.589Z" fill="url(#paint16_radial_290_5)"/>
<path d="M130.031 139.394L189.451 160.063C195.124 161.813 201.255 161.294 206.553 158.617C211.851 155.939 215.902 151.312 217.854 145.708C219.806 140.105 219.505 133.964 217.016 128.577C214.527 123.191 210.043 118.98 204.51 116.832L145.121 96.1422L164.34 40.9504C165.396 38.0961 165.872 35.0602 165.74 32.0199C165.608 28.9797 164.871 25.9962 163.572 23.244C162.272 20.4918 160.437 18.0261 158.173 15.9912C155.909 13.9562 153.261 12.3928 150.385 11.3924C147.509 10.392 144.463 9.97473 141.424 10.1648C138.384 10.3549 135.414 11.1487 132.685 12.4996C129.957 13.8506 127.525 15.7317 125.532 18.033C123.54 20.3342 122.026 23.0092 121.081 25.9018L101.861 81.1349L43.574 60.8574C40.7214 59.8168 37.6903 59.3535 34.6569 59.4943C31.6234 59.635 28.6483 60.3771 25.9045 61.6774C23.1607 62.9777 20.7029 64.8103 18.6742 67.0685C16.6455 69.3267 15.0862 71.9654 14.0873 74.8312C13.0884 77.697 12.6696 80.7328 12.8554 83.7618C13.0412 86.7909 13.8277 89.7528 15.1694 92.4753C16.511 95.1978 18.3809 97.6265 20.6703 99.6202C22.9598 101.614 25.6232 103.133 28.5054 104.089L86.8025 124.366L66.0587 183.932C65.0174 186.783 64.5539 189.812 64.6948 192.844C64.8356 195.875 65.578 198.849 66.8792 201.591C68.1804 204.333 70.0142 206.789 72.2738 208.816C74.5335 210.843 77.174 212.402 80.0417 213.4C82.9094 214.398 85.9471 214.817 88.9782 214.631C92.0092 214.445 94.9731 213.659 97.6974 212.319C100.422 210.978 102.852 209.109 104.847 206.821C106.842 204.533 108.362 201.872 109.318 198.991L130.031 139.394Z" fill="url(#paint17_radial_290_5)"/>
<path d="M129.558 138.2L189.421 159.023C192.197 160.04 195.147 160.494 198.1 160.36C201.053 160.226 203.95 159.505 206.622 158.241C209.294 156.976 211.687 155.193 213.662 152.995C215.638 150.797 217.155 148.228 218.127 145.438C219.099 142.648 219.506 139.693 219.323 136.744C219.14 133.795 218.372 130.913 217.064 128.263C215.755 125.614 213.932 123.252 211.701 121.314C209.47 119.376 206.875 117.901 204.067 116.976L144.205 96.1528L163.496 40.7449C165.328 35.1971 164.904 29.152 162.316 23.9136C159.729 18.6751 155.184 14.663 149.664 12.7424C144.143 10.8218 138.088 11.1468 132.804 13.6471C127.521 16.1474 123.433 20.6228 121.421 26.108L102.129 81.516L43.4202 61.0944C37.8393 59.1535 31.7156 59.5075 26.396 62.0788C21.0764 64.65 16.9965 69.2276 15.0543 74.8048C13.1121 80.382 13.4664 86.5019 16.0393 91.818C18.6122 97.1342 23.193 101.211 28.7738 103.152L87.4831 123.563L66.564 183.593C64.6218 189.17 64.9761 195.29 67.549 200.606C70.1219 205.922 74.7026 209.999 80.2835 211.94C85.8644 213.881 91.9881 213.527 97.3077 210.956C102.627 208.385 106.707 203.807 108.649 198.23L129.558 138.2Z" fill="url(#paint18_radial_290_5)"/>
<path d="M129.074 137.007L189.4 157.994C192.083 158.928 194.924 159.324 197.76 159.16C200.596 158.997 203.372 158.276 205.929 157.04C208.487 155.804 210.776 154.077 212.665 151.957C214.555 149.838 216.008 147.366 216.942 144.685C217.876 142.004 218.272 139.166 218.109 136.331C217.945 133.497 217.224 130.723 215.987 128.167C214.751 125.611 213.022 123.324 210.901 121.435C208.78 119.547 206.307 118.095 203.624 117.161L143.308 96.1738L162.672 40.5908C164.558 35.1733 164.214 29.2289 161.714 24.0652C159.215 18.9016 154.765 14.9417 149.344 13.0566C143.923 11.1716 137.974 11.516 132.807 14.0138C127.64 16.5117 123.678 20.9585 121.792 26.376L102.428 81.959L43.3479 61.3727C37.9268 59.4877 31.9785 59.8319 26.8115 62.3298C21.6445 64.8276 17.682 69.2745 15.7957 74.692C13.9095 80.1095 14.254 86.0539 16.7535 91.2176C19.253 96.3812 23.7026 100.341 29.1237 102.226L88.1936 122.812L67.1201 183.316C65.2325 188.733 65.5756 194.678 68.0741 199.843C70.5727 205.007 75.022 208.968 80.443 210.855C85.8641 212.741 91.8129 212.398 96.9809 209.901C102.149 207.404 106.113 202.958 108 197.541L129.074 137.007Z" fill="url(#paint19_radial_290_5)"/>
<path d="M128.64 135.812L189.409 156.954C192.015 157.861 194.774 158.246 197.529 158.088C200.283 157.929 202.98 157.23 205.464 156.03C207.948 154.83 210.172 153.152 212.008 151.094C213.843 149.035 215.255 146.635 216.163 144.031C217.071 141.427 217.456 138.67 217.297 135.917C217.139 133.164 216.439 130.469 215.238 127.986C214.037 125.504 212.359 123.281 210.299 121.447C208.239 119.612 205.837 118.201 203.231 117.294L142.462 96.1523L161.898 40.3326C162.805 37.7292 163.19 34.9728 163.031 32.2207C162.872 29.4686 162.172 26.7748 160.971 24.293C159.77 21.8113 158.092 19.5903 156.033 17.7566C153.973 15.923 151.572 14.5128 148.967 13.6065C146.362 12.7001 143.603 12.3154 140.85 12.4744C138.096 12.6333 135.4 13.3327 132.917 14.5328C130.433 15.7328 128.211 17.4098 126.376 19.4682C124.541 21.5266 123.13 23.926 122.223 26.5294L102.777 82.3493L43.3155 61.6702C40.7104 60.7639 37.9522 60.3793 35.1984 60.5383C32.4445 60.6972 29.7491 61.3966 27.2657 62.5966C24.7824 63.7967 22.5598 65.4737 20.725 67.5321C18.8902 69.5905 17.479 71.9899 16.5721 74.5933C15.6652 77.1967 15.2802 79.9531 15.4392 82.7052C15.5983 85.4573 16.2982 88.1511 17.499 90.6329C18.6998 93.1146 20.3779 95.3356 22.4377 97.1693C24.4974 99.0029 26.8984 100.413 29.5035 101.319L88.9647 122.009L67.7265 182.975C65.9736 188.214 66.3573 193.933 68.7947 198.891C71.232 203.85 75.5266 207.648 80.7474 209.464C85.9682 211.28 91.6946 210.967 96.6858 208.592C101.677 206.217 105.531 201.973 107.412 196.778L128.64 135.812Z" fill="url(#paint20_radial_290_5)"/>
<path d="M128.115 134.659L189.348 155.956C194.432 157.656 199.982 157.285 204.794 154.923C209.606 152.561 213.293 148.399 215.054 143.339C216.816 138.279 216.511 132.729 214.206 127.892C211.9 123.055 207.78 119.322 202.738 117.501L141.495 96.2041L161.065 40.1681C161.981 37.6344 162.385 34.9441 162.254 32.2531C162.122 29.5622 161.457 26.924 160.297 24.4917C159.138 22.0594 157.507 19.8813 155.499 18.0835C153.491 16.2857 151.146 14.904 148.6 14.0186C146.054 13.1332 143.357 12.7616 140.666 12.9253C137.975 13.0891 135.343 13.7851 132.924 14.9728C130.504 16.1605 128.344 17.8162 126.569 19.8442C124.794 21.8722 123.44 24.2321 122.584 26.787L103.066 82.8127L43.1517 61.9484C40.6243 61.0698 37.9485 60.6974 35.2771 60.8522C32.6057 61.007 29.9909 61.6861 27.5822 62.8507C25.1734 64.0154 23.018 65.6426 21.2385 67.6398C19.4591 69.637 18.0906 71.965 17.2114 74.4907C16.3322 77.0164 15.9593 79.6903 16.1142 82.36C16.2691 85.0296 16.9487 87.6427 18.1141 90.0499C19.2795 92.4571 20.908 94.6112 22.9065 96.3895C24.905 98.1678 27.2345 99.5353 29.7618 100.414L89.6042 121.227L68.2113 182.666C66.5102 187.747 66.8816 193.293 69.2449 198.102C71.6082 202.911 75.7729 206.595 80.8362 208.356C85.8995 210.117 91.4531 209.812 96.2931 207.508C101.133 205.204 104.869 201.086 106.692 196.048L128.115 134.659Z" fill="url(#paint21_radial_290_5)"/>
<path d="M127.611 133.424L189.307 154.885C194.217 156.469 199.552 156.07 204.17 153.773C208.789 151.476 212.325 147.463 214.021 142.594C215.717 137.725 215.438 132.386 213.245 127.719C211.051 123.052 207.118 119.429 202.285 117.624L140.589 96.1631L160.158 39.9213C161.079 37.4588 161.498 34.8372 161.391 32.2105C161.284 29.5838 160.653 27.005 159.534 24.6255C158.416 22.246 156.833 20.1139 154.879 18.3542C152.924 16.5946 150.638 15.243 148.153 14.3788C145.669 13.5147 143.037 13.1553 140.411 13.3219C137.786 13.4885 135.221 14.1777 132.866 15.349C130.51 16.5203 128.413 18.1501 126.697 20.1426C124.981 22.1351 123.681 24.4503 122.873 26.952L103.303 83.1938L43.059 62.2369C38.1493 60.6529 32.8143 61.0522 28.1956 63.3493C23.5768 65.6464 20.0412 69.659 18.3453 74.5283C16.6494 79.3975 16.928 84.7367 19.1213 89.4033C21.3146 94.07 25.2486 97.6933 30.0813 99.4981L90.3252 120.455L68.7677 182.348C67.8589 184.807 67.4495 187.423 67.5639 190.043C67.6783 192.662 68.314 195.233 69.4338 197.604C70.5536 199.975 72.1352 202.099 74.0858 203.853C76.0365 205.606 78.3172 206.954 80.7948 207.816C83.2725 208.679 85.8973 209.039 88.516 208.876C91.1346 208.713 93.6946 208.031 96.0462 206.868C98.3978 205.705 100.494 204.086 102.212 202.104C103.93 200.123 105.236 197.819 106.053 195.327L127.611 133.424Z" fill="url(#paint22_radial_290_5)"/>
<path d="M127.157 132.23L189.296 153.845C191.692 154.798 194.256 155.256 196.834 155.192C199.412 155.128 201.95 154.543 204.295 153.472C206.641 152.402 208.746 150.868 210.482 148.963C212.219 147.058 213.551 144.822 214.4 142.389C215.249 139.955 215.596 137.376 215.421 134.805C215.245 132.234 214.551 129.725 213.379 127.429C212.208 125.134 210.583 123.099 208.604 121.447C206.625 119.796 204.331 118.562 201.862 117.819L139.713 96.2039L159.375 39.7563C160.781 35.0469 160.316 29.9771 158.076 25.6019C155.836 21.2266 151.994 17.8828 147.35 16.2664C142.706 14.65 137.617 14.8854 133.142 16.9236C128.667 18.9617 125.151 22.6457 123.326 27.2089L103.663 83.6565L43.0378 62.5658C40.6418 61.6133 38.0778 61.1553 35.5 61.2194C32.9222 61.2835 30.3842 61.8684 28.0386 62.9389C25.693 64.0093 23.5885 65.5432 21.8519 67.448C20.1153 69.3529 18.7826 71.5893 17.9339 74.0226C17.0851 76.4559 16.738 79.0357 16.9134 81.6066C17.0889 84.1776 17.7833 86.6864 18.9548 88.982C20.1263 91.2776 21.7507 93.3124 23.7301 94.964C25.7094 96.6155 28.0027 97.8496 30.472 98.5918L91.1075 119.682L69.3437 182.008C68.3906 184.402 67.9322 186.964 67.9964 189.54C68.0605 192.117 68.646 194.653 69.7171 196.997C70.7883 199.341 72.323 201.444 74.2291 203.18C76.1352 204.915 78.3732 206.247 80.8081 207.095C83.243 207.943 85.8244 208.29 88.397 208.115C90.9696 207.94 93.48 207.246 95.7771 206.075C98.0742 204.904 100.111 203.281 101.763 201.303C103.416 199.325 104.651 197.033 105.393 194.565L127.157 132.23Z" fill="url(#paint23_radial_290_5)"/>
<path d="M126.673 131.036L189.275 152.817C193.874 154.314 198.877 153.949 203.209 151.801C207.542 149.653 210.859 145.893 212.449 141.328C214.039 136.763 213.774 131.757 211.712 127.385C209.649 123.013 205.954 119.623 201.419 117.944L138.816 96.1735L158.551 39.5612C160.161 34.9381 159.868 29.8651 157.735 25.4581C155.603 21.0512 151.806 17.6713 147.179 16.062C144.889 15.2652 142.464 14.927 140.042 15.0669C137.621 15.2067 135.251 15.8218 133.067 16.877C128.657 19.0081 125.275 22.8025 123.665 27.4256L103.93 84.0378L42.9036 62.8134C38.3047 61.3165 33.302 61.6813 28.9693 63.8294C24.6366 65.9774 21.3192 69.7375 19.7296 74.3025C18.14 78.8674 18.4048 83.8733 20.4671 88.2453C22.5294 92.6173 26.2248 96.0069 30.76 97.6866L91.7764 118.911L69.8995 181.699C69.1021 183.988 68.7638 186.412 68.9037 188.832C69.0436 191.252 69.6591 193.62 70.715 195.802C71.7709 197.984 73.2466 199.937 75.0577 201.55C76.8689 203.162 78.98 204.402 81.2706 205.199C83.5612 205.995 85.9864 206.333 88.4078 206.194C90.8292 206.054 93.1993 205.439 95.3829 204.384C97.5664 203.328 99.5206 201.854 101.134 200.044C102.747 198.234 103.988 196.124 104.785 193.835L126.673 131.036Z" fill="url(#paint24_radial_290_5)"/>
<path d="M126.189 129.842L189.245 151.777C193.692 153.253 198.543 152.92 202.747 150.851C206.951 148.782 210.172 145.143 211.713 140.72C213.254 136.297 212.992 131.446 210.983 127.215C208.974 122.984 205.379 119.712 200.976 118.108L137.91 96.1735L157.717 39.3039C158.541 37.0804 158.913 34.7149 158.812 32.3459C158.71 29.9769 158.136 27.652 157.125 25.5072C156.113 23.3624 154.683 21.4409 152.919 19.8552C151.154 18.2694 149.092 17.0513 146.851 16.2722C144.61 15.493 142.236 15.1684 139.868 15.3175C137.499 15.4665 135.185 16.0863 133.059 17.1403C130.934 18.1942 129.04 19.6613 127.489 21.4557C125.938 23.2501 124.761 25.3356 124.026 27.5903L104.219 84.4496L42.8113 63.0914C40.5898 62.282 38.2296 61.9221 35.8677 62.0324C33.5058 62.1428 31.1893 62.7212 29.0531 63.7342C26.9169 64.7472 25.0034 66.1745 23.4241 67.9331C21.8448 69.6917 20.6312 71.7465 19.8536 73.9781C19.076 76.2096 18.75 78.5734 18.8948 80.932C19.0395 83.2905 19.6522 85.5968 20.6968 87.7166C21.7414 89.8365 23.1971 91.7277 24.9796 93.2802C26.7622 94.8328 28.8358 96.0158 31.0799 96.7603L92.4876 118.129L70.4459 181.421C69.636 183.641 69.2759 186 69.3863 188.361C69.4967 190.721 70.0755 193.036 71.0892 195.171C72.1029 197.305 73.5311 199.218 75.2909 200.796C77.0506 202.374 79.1068 203.587 81.3398 204.364C83.5728 205.141 85.9381 205.467 88.2982 205.322C90.6583 205.178 92.9659 204.566 95.0872 203.522C97.2085 202.478 99.101 201.023 100.655 199.241C102.208 197.46 103.392 195.388 104.137 193.145L126.189 129.842Z" fill="url(#paint25_radial_290_5)"/>
<path d="M125.715 128.648L189.224 150.747C193.533 152.249 198.262 151.978 202.372 149.994C206.481 148.011 209.634 144.477 211.137 140.171C212.639 135.865 212.368 131.138 210.384 127.031C208.399 122.924 204.863 119.774 200.554 118.272L137.044 96.1729L156.923 39.0975C158.426 34.7911 158.155 30.0646 156.17 25.9578C154.185 21.851 150.649 18.7003 146.34 17.1988C142.031 15.6974 137.301 15.9682 133.192 17.9516C129.082 19.935 125.93 23.4686 124.427 27.7751L104.549 84.8505L42.7493 63.3584C38.44 61.857 33.7103 62.1277 29.6008 64.1112C25.4914 66.0946 22.3386 69.6282 20.8361 73.9346C19.3337 78.2411 19.6048 82.9676 21.5895 87.0743C23.5742 91.1811 27.1102 94.3319 31.4194 95.8333L93.2187 117.325L71.0018 181.143C70.2578 183.275 69.9414 185.533 70.0706 187.788C70.1998 190.042 70.7722 192.249 71.7549 194.283C72.7376 196.316 74.1115 198.136 75.7981 199.639C77.4848 201.142 79.4511 202.298 81.5848 203.042C83.7185 203.785 85.9779 204.101 88.2339 203.972C90.4899 203.843 92.6984 203.271 94.7332 202.289C96.768 201.307 98.5893 199.934 100.093 198.248C101.597 196.563 102.754 194.598 103.498 192.465L125.715 128.648Z" fill="url(#paint26_radial_290_5)"/>
<path d="M125.231 127.454L189.193 149.708C191.253 150.443 193.438 150.763 195.623 150.65C197.807 150.537 199.947 149.992 201.92 149.049C203.893 148.105 205.66 146.78 207.118 145.151C208.576 143.522 209.697 141.62 210.416 139.556C211.135 137.491 211.438 135.305 211.308 133.123C211.178 130.941 210.616 128.807 209.656 126.842C208.696 124.878 207.357 123.123 205.715 121.679C204.073 120.235 202.162 119.13 200.091 118.427L136.128 96.1836L156.079 38.892C157.44 34.7648 157.124 30.2683 155.198 26.3721C153.272 22.4759 149.891 19.4923 145.784 18.0647C141.677 16.6371 137.173 16.8799 133.243 18.7408C129.313 20.6017 126.273 23.9315 124.778 28.0122L104.827 85.2523L42.6364 63.6367C40.5714 62.881 38.3766 62.5436 36.1799 62.6441C33.9831 62.7446 31.8283 63.2809 29.841 64.222C27.8538 65.1631 26.0738 66.49 24.6048 68.1254C23.1359 69.7608 22.0075 71.6721 21.285 73.7478C20.5626 75.8235 20.2608 78.022 20.3971 80.2154C20.5335 82.4088 21.1052 84.5532 22.0792 86.5235C23.0531 88.4939 24.4099 90.2508 26.0701 91.6919C27.7303 93.1331 29.6608 94.2296 31.7494 94.9176L93.9298 116.533L71.5585 180.762C70.841 182.818 70.5357 184.995 70.6601 187.169C70.7844 189.343 71.3359 191.471 72.2832 193.432C73.2306 195.393 74.5551 197.148 76.1812 198.597C77.8073 200.047 79.7033 201.162 81.7606 201.879C83.8179 202.596 85.9963 202.901 88.1716 202.777C90.3469 202.652 92.4764 202.101 94.4385 201.154C96.4007 200.208 98.1569 198.884 99.6071 197.259C101.057 195.634 102.173 193.739 102.891 191.683L125.231 127.454Z" fill="url(#paint27_radial_290_5)"/>
<path d="M124.748 126.26L189.174 148.668C191.154 149.372 193.254 149.678 195.352 149.568C197.451 149.457 199.508 148.933 201.403 148.025C203.298 147.117 204.995 145.844 206.396 144.278C207.797 142.712 208.873 140.884 209.564 138.9C210.255 136.917 210.546 134.816 210.421 132.719C210.296 130.622 209.757 128.571 208.836 126.684C207.914 124.796 206.628 123.109 205.051 121.72C203.474 120.331 201.638 119.268 199.648 118.591L135.233 96.1833L155.256 38.6858C156.611 34.7059 156.336 30.352 154.492 26.5738C152.647 22.7955 149.382 19.8996 145.409 18.5177C141.436 17.1358 137.078 17.38 133.284 19.1972C129.491 21.0144 126.57 24.257 125.16 28.2176L105.126 85.7151L42.5547 63.9452C40.5786 63.2572 38.4864 62.9648 36.3972 63.0849C34.308 63.205 32.2629 63.7352 30.3787 64.6451C28.4945 65.555 26.8081 66.8269 25.4158 68.3882C24.0235 69.9494 22.9525 71.7693 22.264 73.7442C21.5755 75.719 21.2831 77.8101 21.4033 79.898C21.5234 81.9858 22.0538 84.0294 22.9643 85.9124C23.8749 87.7953 25.1476 89.4806 26.7099 90.872C28.2721 92.2634 30.0934 93.3337 32.0695 94.0218L94.6516 115.792L72.1156 180.484C70.8353 184.446 71.1572 188.751 73.0128 192.478C74.8683 196.206 78.11 199.059 82.044 200.428C85.9781 201.797 90.2921 201.574 94.0631 199.805C97.8342 198.036 100.763 194.862 102.222 190.962L124.748 126.26Z" fill="url(#paint28_radial_290_5)"/>
<path d="M124.273 125.067L189.163 147.64C192.995 148.972 197.201 148.728 200.853 146.962C204.506 145.196 207.307 142.052 208.64 138.221C209.973 134.391 209.729 130.189 207.962 126.539C206.194 122.888 203.048 120.089 199.215 118.757L134.326 96.1843L154.421 38.481C155.081 36.5846 155.361 34.5767 155.245 32.5721C155.128 30.5676 154.618 28.6056 153.743 26.7982C152.868 24.9908 151.645 23.3733 150.144 22.0381C148.644 20.703 146.894 19.6763 144.997 19.0166C143.099 18.357 141.09 18.0773 139.084 18.1936C137.078 18.31 135.115 18.82 133.307 19.6945C131.498 20.5691 129.879 21.791 128.543 23.2907C127.207 24.7904 126.18 26.5384 125.52 28.4349L105.414 86.0765L42.4513 64.1726C38.6174 62.8391 34.4104 63.0821 30.7559 64.8484C27.1013 66.6147 24.2982 69.7595 22.9638 73.5909C21.6294 77.4223 21.8728 81.6265 23.6402 85.2787C25.4077 88.9309 28.5544 91.7319 32.3883 93.0654L95.3617 114.969L72.702 180.125C71.9875 182.034 71.6621 184.066 71.7446 186.103C71.8272 188.139 72.3161 190.138 73.1827 191.983C74.0494 193.828 75.2762 195.481 76.7912 196.846C78.3062 198.21 80.0788 199.258 82.0048 199.928C83.9308 200.599 85.9713 200.877 88.0067 200.748C90.042 200.619 92.0311 200.085 93.8569 199.177C95.6827 198.269 97.3084 197.005 98.6387 195.461C99.969 193.916 100.977 192.121 101.603 190.181L124.273 125.067Z" fill="url(#paint29_radial_290_5)"/>
<path d="M123.79 123.872L189.122 146.599C190.941 147.232 192.867 147.5 194.79 147.389C196.713 147.278 198.595 146.789 200.329 145.951C202.063 145.113 203.615 143.941 204.896 142.504C206.177 141.066 207.163 139.39 207.796 137.572C208.429 135.754 208.697 133.829 208.586 131.908C208.474 129.986 207.985 128.105 207.146 126.372C206.307 124.639 205.135 123.088 203.697 121.808C202.258 120.528 200.582 119.544 198.763 118.911L133.43 96.194L153.608 38.2745C154.886 34.6027 154.653 30.5738 152.959 27.0741C151.265 23.5744 148.249 20.8906 144.575 19.613C140.901 18.3354 136.869 18.5687 133.367 20.2616C129.865 21.9545 127.18 24.9684 125.901 28.6401L105.734 86.5493L42.3691 64.5117C38.695 63.2341 34.6635 63.4674 31.1615 65.1603C27.6595 66.8532 24.974 69.867 23.6956 73.5388C22.4171 77.2105 22.6506 81.2394 24.3446 84.7391C26.0386 88.2388 29.0542 90.9226 32.7283 92.2002L96.0829 114.238L73.2275 179.867C72.5945 181.685 72.326 183.61 72.4374 185.532C72.5488 187.453 73.0377 189.334 73.8765 191.067C74.7153 192.8 75.8876 194.351 77.3261 195.631C78.7646 196.911 80.4413 197.896 82.2605 198.528C84.0798 199.161 86.006 199.429 87.929 199.318C89.852 199.207 91.7342 198.718 93.4682 197.88C95.2022 197.041 96.7539 195.87 98.035 194.433C99.316 192.995 100.301 191.319 100.934 189.501L123.79 123.872Z" fill="url(#paint30_radial_290_5)"/>
<path d="M123.315 122.678L189.1 145.569C192.616 146.798 196.476 146.58 199.831 144.965C203.186 143.349 205.762 140.468 206.991 136.954C208.221 133.441 208.003 129.583 206.386 126.23C204.769 122.877 201.886 120.303 198.37 119.075L132.575 96.1933L152.824 38.068C154.053 34.5546 153.836 30.6971 152.219 27.3441C150.602 23.9911 147.719 21.4173 144.203 20.1888C140.688 18.9603 136.827 19.1778 133.472 20.7935C130.117 22.4092 127.542 25.2908 126.312 28.8041L106.073 86.9192L42.3271 64.7477C40.587 64.1394 38.7442 63.8796 36.9036 63.9831C35.063 64.0867 33.2609 64.5515 31.6 65.3511C29.9392 66.1506 28.4521 67.2692 27.2239 68.6431C25.9956 70.0169 25.0501 71.6189 24.4414 73.3579C23.8328 75.0969 23.5729 76.9388 23.6765 78.7781C23.7801 80.6175 24.2451 82.4185 25.0452 84.0783C25.8452 85.738 26.9646 87.224 28.3393 88.4515C29.7141 89.6789 31.3171 90.6238 33.0573 91.2321L96.8033 113.414L73.783 179.506C73.1743 181.245 72.9145 183.087 73.0181 184.926C73.1216 186.766 73.5867 188.567 74.3868 190.226C75.1868 191.886 76.3062 193.372 77.6809 194.599C79.0556 195.827 80.6587 196.772 82.3988 197.38C84.139 197.988 85.982 198.248 87.8226 198.145C89.6632 198.041 91.4654 197.576 93.1262 196.777C94.787 195.977 96.2739 194.859 97.5021 193.485C98.7304 192.111 99.6759 190.509 100.285 188.77L123.315 122.678Z" fill="url(#paint31_radial_290_5)"/>
<defs>
<radialGradient id="paint0_radial_290_5" cx="0" cy="0" r="1" gradientUnits="userSpaceOnUse" gradientTransform="translate(185.748 4.44028) rotate(63.9317) scale(278.615 278.727)">
<stop stop-color="#A8E6E3"/>
<stop offset="0.09" stop-color="#9EE3E0"/>
<stop offset="0.26" stop-color="#82DBD7"/>
<stop offset="0.35" stop-color="#6ED6D1"/>
<stop offset="0.56" stop-color="#68CCC7"/>
<stop offset="0.92" stop-color="#59B0AB"/>
<stop offset="1" stop-color="#55A9A3"/>
</radialGradient>
<radialGradient id="paint1_radial_290_5" cx="0" cy="0" r="1" gradientUnits="userSpaceOnUse" gradientTransform="translate(184.301 6.78911) rotate(63.9317) scale(275.954 276.065)">
<stop stop-color="#A7E6E3"/>
<stop offset="0.1" stop-color="#9CE3E0"/>
<stop offset="0.27" stop-color="#7FDBD6"/>
<stop offset="0.35" stop-color="#6FD6D1"/>
<stop offset="0.56" stop-color="#69CCC7"/>
<stop offset="0.93" stop-color="#5AB0AB"/>
<stop offset="1" stop-color="#56AAA4"/>
</radialGradient>
<radialGradient id="paint2_radial_290_5" cx="0" cy="0" r="1" gradientUnits="userSpaceOnUse" gradientTransform="translate(182.864 9.10863) rotate(63.9317) scale(273.304 273.413)">
<stop stop-color="#A7E6E2"/>
<stop offset="0.1" stop-color="#9CE3DF"/>
<stop offset="0.28" stop-color="#7EDBD5"/>
<stop offset="0.35" stop-color="#70D7D1"/>
<stop offset="0.57" stop-color="#6ACDC7"/>
<stop offset="0.95" stop-color="#5AB1AB"/>
<stop offset="1" stop-color="#57ACA6"/>
</radialGradient>
<radialGradient id="paint3_radial_290_5" cx="0" cy="0" r="1" gradientUnits="userSpaceOnUse" gradientTransform="translate(181.45 11.4074) rotate(63.9317) scale(270.622 270.731)">
<stop stop-color="#A6E6E2"/>
<stop offset="0.11" stop-color="#9AE3DE"/>
<stop offset="0.29" stop-color="#7CDAD4"/>
<stop offset="0.35" stop-color="#71D7D1"/>
<stop offset="0.57" stop-color="#6BCDC7"/>
<stop offset="0.96" stop-color="#59B1AB"/>
<stop offset="1" stop-color="#57ADA7"/>
</radialGradient>
<radialGradient id="paint4_radial_290_5" cx="0" cy="0" r="1" gradientUnits="userSpaceOnUse" gradientTransform="translate(180.049 13.6633) rotate(63.9317) scale(267.931 268.038)">
<stop stop-color="#A6E5E1"/>
<stop offset="0.11" stop-color="#9AE2DD"/>
<stop offset="0.3" stop-color="#7AD9D4"/>
<stop offset="0.35" stop-color="#71D7D1"/>
<stop offset="0.58" stop-color="#6ACDC7"/>
<stop offset="0.98" stop-color="#59B1AB"/>
<stop offset="1" stop-color="#58AFA9"/>
</radialGradient>
<radialGradient id="paint5_radial_290_5" cx="0" cy="0" r="1" gradientUnits="userSpaceOnUse" gradientTransform="translate(178.663 15.9012) rotate(63.9317) scale(265.229 265.335)">
<stop stop-color="#A5E5E1"/>
<stop offset="0.11" stop-color="#98E2DD"/>
<stop offset="0.32" stop-color="#77D8D3"/>
<stop offset="0.35" stop-color="#72D7D1"/>
<stop offset="0.59" stop-color="#6BCDC7"/>
<stop offset="0.99" stop-color="#59B1AB"/>
<stop offset="1" stop-color="#59B0AA"/>
</radialGradient>
<radialGradient id="paint6_radial_290_5" cx="0" cy="0" r="1" gradientUnits="userSpaceOnUse" gradientTransform="translate(177.287 18.1126) rotate(63.9317) scale(262.506 262.611)">
<stop stop-color="#A5E5E0"/>
<stop offset="0.12" stop-color="#98E2DC"/>
<stop offset="0.34" stop-color="#75D9D2"/>
<stop offset="0.35" stop-color="#73D8D1"/>
<stop offset="0.59" stop-color="#6CCEC7"/>
<stop offset="1" stop-color="#5AB2AC"/>
</radialGradient>
<radialGradient id="paint7_radial_290_5" cx="0" cy="0" r="1" gradientUnits="userSpaceOnUse" gradientTransform="translate(175.935 20.2996) rotate(63.9317) scale(259.773 259.877)">
<stop stop-color="#A4E5E0"/>
<stop offset="0.13" stop-color="#96E1DC"/>
<stop offset="0.35" stop-color="#74D8D1"/>
<stop offset="0.6" stop-color="#6DCEC7"/>
<stop offset="1" stop-color="#5BB3AD"/>
</radialGradient>
<radialGradient id="paint8_radial_290_5" cx="0" cy="0" r="1" gradientUnits="userSpaceOnUse" gradientTransform="translate(174.587 22.45) rotate(63.9317) scale(257.03 257.133)">
<stop stop-color="#A4E5DF"/>
<stop offset="0.13" stop-color="#96E1DB"/>
<stop offset="0.35" stop-color="#75D8D2"/>
<stop offset="0.61" stop-color="#6DCEC8"/>
<stop offset="1" stop-color="#5BB5AF"/>
</radialGradient>
<radialGradient id="paint9_radial_290_5" cx="0" cy="0" r="1" gradientUnits="userSpaceOnUse" gradientTransform="translate(173.26 24.5785) rotate(63.9317) scale(254.266 254.368)">
<stop stop-color="#A3E5DF"/>
<stop offset="0.14" stop-color="#94E1DB"/>
<stop offset="0.35" stop-color="#76D8D2"/>
<stop offset="0.61" stop-color="#6ECEC8"/>
<stop offset="1" stop-color="#5CB6B0"/>
</radialGradient>
<radialGradient id="paint10_radial_290_5" cx="0" cy="0" r="1" gradientUnits="userSpaceOnUse" gradientTransform="translate(171.955 26.6745) rotate(63.9317) scale(251.492 251.593)">
<stop stop-color="#A3E5DE"/>
<stop offset="0.15" stop-color="#93E1DA"/>
<stop offset="0.35" stop-color="#77D9D2"/>
<stop offset="0.62" stop-color="#6FCFC8"/>
<stop offset="1" stop-color="#5DB8B2"/>
</radialGradient>
<radialGradient id="paint11_radial_290_5" cx="0" cy="0" r="1" gradientUnits="userSpaceOnUse" gradientTransform="translate(170.658 28.7426) rotate(63.9317) scale(248.707 248.807)">
<stop stop-color="#A2E5DE"/>
<stop offset="0.16" stop-color="#92E0D9"/>
<stop offset="0.35" stop-color="#78D9D2"/>
<stop offset="0.62" stop-color="#70CFC8"/>
<stop offset="1" stop-color="#5EB9B3"/>
</radialGradient>
<radialGradient id="paint12_radial_290_5" cx="0" cy="0" r="1" gradientUnits="userSpaceOnUse" gradientTransform="translate(169.37 30.7832) rotate(63.9317) scale(245.912 246.011)">
<stop stop-color="#A2E4DD"/>
<stop offset="0.16" stop-color="#91DFD8"/>
<stop offset="0.35" stop-color="#78D9D2"/>
<stop offset="0.63" stop-color="#70CFC8"/>
<stop offset="1" stop-color="#5FBAB5"/>
</radialGradient>
<radialGradient id="paint13_radial_290_5" cx="0" cy="0" r="1" gradientUnits="userSpaceOnUse" gradientTransform="translate(168.107 32.8007) rotate(63.9317) scale(243.107 243.205)">
<stop stop-color="#A1E4DD"/>
<stop offset="0.18" stop-color="#8FDFD8"/>
<stop offset="0.35" stop-color="#79D9D2"/>
<stop offset="0.65" stop-color="#70CFC8"/>
<stop offset="1" stop-color="#5FBCB6"/>
</radialGradient>
<radialGradient id="paint14_radial_290_5" cx="0" cy="0" r="1" gradientUnits="userSpaceOnUse" gradientTransform="translate(166.853 34.7913) rotate(63.9317) scale(240.292 240.388)">
<stop stop-color="#A1E4DC"/>
<stop offset="0.19" stop-color="#8EDFD7"/>
<stop offset="0.35" stop-color="#7ADAD2"/>
<stop offset="0.65" stop-color="#71D0C9"/>
<stop offset="1" stop-color="#60BDB8"/>
</radialGradient>
<radialGradient id="paint15_radial_290_5" cx="0" cy="0" r="1" gradientUnits="userSpaceOnUse" gradientTransform="translate(165.616 36.7505) rotate(63.9317) scale(237.466 237.561)">
<stop stop-color="#A0E4DC"/>
<stop offset="0.21" stop-color="#8BDED6"/>
<stop offset="0.35" stop-color="#7BDAD2"/>
<stop offset="0.66" stop-color="#71D0C8"/>
<stop offset="1" stop-color="#61BFB9"/>
</radialGradient>
<radialGradient id="paint16_radial_290_5" cx="0" cy="0" r="1" gradientUnits="userSpaceOnUse" gradientTransform="translate(164.399 38.6763) rotate(63.9317) scale(234.63 234.724)">
<stop stop-color="#A0E4DB"/>
<stop offset="0.23" stop-color="#8ADED5"/>
<stop offset="0.35" stop-color="#7CDAD2"/>
<stop offset="0.67" stop-color="#72D0C9"/>
<stop offset="1" stop-color="#62C0BB"/>
</radialGradient>
<radialGradient id="paint17_radial_290_5" cx="0" cy="0" r="1" gradientUnits="userSpaceOnUse" gradientTransform="translate(163.192 40.5742) rotate(63.9317) scale(231.784 231.877)">
<stop stop-color="#9FE4DB"/>
<stop offset="0.25" stop-color="#87DDD5"/>
<stop offset="0.35" stop-color="#7DDAD2"/>
<stop offset="0.67" stop-color="#73D0C9"/>
<stop offset="1" stop-color="#63C2BC"/>
</radialGradient>
<radialGradient id="paint18_radial_290_5" cx="0" cy="0" r="1" gradientUnits="userSpaceOnUse" gradientTransform="translate(161.999 42.4545) rotate(63.9317) scale(228.927 229.019)">
<stop stop-color="#9FE4DA"/>
<stop offset="0.28" stop-color="#85DDD4"/>
<stop offset="0.35" stop-color="#7EDBD2"/>
<stop offset="0.67" stop-color="#74D1CA"/>
<stop offset="1" stop-color="#64C3BE"/>
</radialGradient>
<radialGradient id="paint19_radial_290_5" cx="0" cy="0" r="1" gradientUnits="userSpaceOnUse" gradientTransform="translate(160.824 44.3029) rotate(63.9317) scale(226.07 226.161)">
<stop stop-color="#9EE4DA"/>
<stop offset="0.32" stop-color="#82DCD3"/>
<stop offset="0.35" stop-color="#7FDBD2"/>
<stop offset="0.66" stop-color="#75D2CB"/>
<stop offset="1" stop-color="#64C5BF"/>
</radialGradient>
<radialGradient id="paint20_radial_290_5" cx="0" cy="0" r="1" gradientUnits="userSpaceOnUse" gradientTransform="translate(159.667 46.1179) rotate(63.9317) scale(223.203 223.293)">
<stop stop-color="#9EE3D9"/>
<stop offset="0.34" stop-color="#80DBD2"/>
<stop offset="0.35" stop-color="#7FDBD2"/>
<stop offset="0.67" stop-color="#75D3CB"/>
<stop offset="1" stop-color="#65C6C1"/>
</radialGradient>
<radialGradient id="paint21_radial_290_5" cx="0" cy="0" r="1" gradientUnits="userSpaceOnUse" gradientTransform="translate(158.521 47.9065) rotate(63.9317) scale(220.336 220.425)">
<stop stop-color="#9DE3D9"/>
<stop offset="0.35" stop-color="#80DBD2"/>
<stop offset="0.67" stop-color="#76D3CC"/>
<stop offset="1" stop-color="#66C7C2"/>
</radialGradient>
<radialGradient id="paint22_radial_290_5" cx="0" cy="0" r="1" gradientUnits="userSpaceOnUse" gradientTransform="translate(157.388 49.6768) rotate(63.9317) scale(217.459 217.546)">
<stop stop-color="#9DE3D8"/>
<stop offset="0.35" stop-color="#81DCD2"/>
<stop offset="0.67" stop-color="#77D4CC"/>
<stop offset="1" stop-color="#67C9C4"/>
</radialGradient>
<radialGradient id="paint23_radial_290_5" cx="0" cy="0" r="1" gradientUnits="userSpaceOnUse" gradientTransform="translate(156.274 51.4143) rotate(63.9317) scale(214.582 214.668)">
<stop stop-color="#9CE3D8"/>
<stop offset="0.35" stop-color="#82DCD2"/>
<stop offset="0.67" stop-color="#78D5CD"/>
<stop offset="1" stop-color="#68CAC5"/>
</radialGradient>
<radialGradient id="paint24_radial_290_5" cx="0" cy="0" r="1" gradientUnits="userSpaceOnUse" gradientTransform="translate(155.178 53.1206) rotate(63.9317) scale(211.694 211.779)">
<stop stop-color="#9CE3D7"/>
<stop offset="0.35" stop-color="#83DCD3"/>
<stop offset="0.66" stop-color="#79D6CE"/>
<stop offset="1" stop-color="#68CCC7"/>
</radialGradient>
<radialGradient id="paint25_radial_290_5" cx="0" cy="0" r="1" gradientUnits="userSpaceOnUse" gradientTransform="translate(154.093 54.7988) rotate(63.9317) scale(208.807 208.89)">
<stop stop-color="#9BE3D7"/>
<stop offset="0.35" stop-color="#84DCD3"/>
<stop offset="0.66" stop-color="#7AD6CF"/>
<stop offset="1" stop-color="#69CDC8"/>
</radialGradient>
<radialGradient id="paint26_radial_290_5" cx="0" cy="0" r="1" gradientUnits="userSpaceOnUse" gradientTransform="translate(153.017 56.4489) rotate(63.9317) scale(205.908 205.991)">
<stop stop-color="#9BE3D6"/>
<stop offset="0.35" stop-color="#85DDD3"/>
<stop offset="0.66" stop-color="#7BD8D0"/>
<stop offset="1" stop-color="#6ACFCA"/>
</radialGradient>
<radialGradient id="paint27_radial_290_5" cx="0" cy="0" r="1" gradientUnits="userSpaceOnUse" gradientTransform="translate(151.964 58.077) rotate(63.9317) scale(203.021 203.102)">
<stop stop-color="#9AE3D6"/>
<stop offset="0.35" stop-color="#86DDD3"/>
<stop offset="0.66" stop-color="#7CD8D0"/>
<stop offset="1" stop-color="#6BD0CB"/>
</radialGradient>
<radialGradient id="paint28_radial_290_5" cx="0" cy="0" r="1" gradientUnits="userSpaceOnUse" gradientTransform="translate(150.931 59.6723) rotate(63.9317) scale(200.123 200.203)">
<stop stop-color="#9AE2D5"/>
<stop offset="0.35" stop-color="#86DDD3"/>
<stop offset="0.67" stop-color="#7CD9D1"/>
<stop offset="1" stop-color="#6CD2CD"/>
</radialGradient>
<radialGradient id="paint29_radial_290_5" cx="0" cy="0" r="1" gradientUnits="userSpaceOnUse" gradientTransform="translate(149.906 61.2413) rotate(63.9317) scale(197.225 197.304)">
<stop stop-color="#99E2D5"/>
<stop offset="0.35" stop-color="#87DDD3"/>
<stop offset="0.66" stop-color="#7DD9D1"/>
<stop offset="1" stop-color="#6CD3CE"/>
</radialGradient>
<radialGradient id="paint30_radial_290_5" cx="0" cy="0" r="1" gradientUnits="userSpaceOnUse" gradientTransform="translate(148.891 62.7812) rotate(63.9317) scale(194.327 194.405)">
<stop stop-color="#99E2D4"/>
<stop offset="0.35" stop-color="#88DED3"/>
<stop offset="0.66" stop-color="#7EDBD2"/>
<stop offset="1" stop-color="#6DD5D0"/>
</radialGradient>
<radialGradient id="paint31_radial_290_5" cx="0" cy="0" r="1" gradientUnits="userSpaceOnUse" gradientTransform="translate(147.898 64.2982) rotate(63.9317) scale(191.429 191.506)">
<stop stop-color="#98E2D4"/>
<stop offset="1" stop-color="#6ED6D1"/>
</radialGradient>
</defs>
</svg>
