<svg width="99" height="99" viewBox="0 0 99 99" fill="none" xmlns="http://www.w3.org/2000/svg">
<path d="M73.5333 49.2332L93.175 29.6145C96.143 26.3677 97.7452 22.1029 97.6482 17.7063C97.5512 13.3097 95.7625 9.11954 92.6542 6.00662C89.5459 2.89369 85.3569 1.09744 80.9577 0.991158C76.5584 0.884879 72.2873 2.47673 69.0321 5.43592L49.4005 25.0649L29.7588 5.43592C28.1825 3.79436 26.2939 2.48374 24.2043 1.58083C22.1146 0.677913 19.8658 0.200836 17.5893 0.177646C15.3128 0.154456 13.0544 0.585596 10.9467 1.44576C8.83905 2.30591 6.92444 3.57784 5.31496 5.18695C3.70549 6.79606 2.43354 8.71 1.57372 10.8166C0.713891 12.9233 0.283431 15.1802 0.307605 17.4552C0.331779 19.7302 0.810139 21.9776 1.71453 24.0655C2.61893 26.1534 3.93117 28.0399 5.57447 29.6145L25.2061 49.2332L5.57447 68.8623C3.98652 70.4492 2.72707 72.3331 1.86767 74.4065C1.00828 76.4799 0.565857 78.7022 0.565856 80.9464C0.565856 83.1906 1.00828 85.4129 1.86767 87.4863C2.72707 89.5597 3.98652 91.4436 5.57447 93.0305C7.16242 94.6174 9.04772 95.8763 11.1225 96.7351C13.1972 97.5939 15.4208 98.036 17.6665 98.036C19.9122 98.036 22.1361 97.5939 24.2108 96.7351C26.2856 95.8763 28.1709 94.6174 29.7588 93.0305L49.4005 73.4118L69.0321 93.0305C72.2614 96.1274 76.5765 97.8364 81.052 97.7908C85.5275 97.7452 89.8068 95.9488 92.9723 92.7867C96.1378 89.6247 97.9372 85.3489 97.9847 80.8763C98.0322 76.4038 96.3241 72.0908 93.2265 68.8623L73.5333 49.2332Z" fill="url(#paint0_radial_290_6)"/>
<path d="M72.8833 49.1923L92.7209 29.3883C94.4254 27.8691 95.8018 26.018 96.7654 23.9486C97.729 21.8791 98.2595 19.6349 98.3247 17.3533C98.3899 15.0717 97.9882 12.8008 97.1443 10.6797C96.3005 8.55872 95.0322 6.63219 93.4172 5.0182C91.8021 3.40422 89.8744 2.13677 87.752 1.29347C85.6296 0.450178 83.3573 0.048796 81.0742 0.113947C78.7911 0.179099 76.5454 0.709412 74.4745 1.67237C72.4037 2.63532 70.5514 4.01065 69.0312 5.71411L49.142 25.446L29.4282 5.73465C27.9147 4.0047 26.0618 2.60388 23.9843 1.61903C21.9068 0.634184 19.6491 0.0863432 17.351 0.00940757C15.0529 -0.0675281 12.7634 0.32809 10.6246 1.17178C8.48583 2.01548 6.5431 3.28926 4.91719 4.9141C3.29128 6.53895 2.01692 8.48028 1.17267 10.6177C0.328428 12.7551 -0.0675746 15.043 0.00941135 17.3396C0.0863973 19.6362 0.634533 21.8925 1.62002 23.9686C2.60552 26.0447 4.00739 27.8964 5.73847 29.4089L25.4523 49.11L5.6663 68.8831C2.81472 72.0783 1.29431 76.2426 1.41659 80.5223C1.53888 84.8019 3.29474 88.8727 6.32412 91.9001C9.3535 94.9275 13.4269 96.6821 17.7093 96.8043C21.9917 96.9265 26.1587 95.4071 29.356 92.5573L49.142 72.7842L68.959 92.5882C72.1486 95.4893 76.3332 97.0523 80.6449 96.9533C84.9567 96.8544 89.0651 95.1009 92.1181 92.0566C95.1711 89.0122 96.9346 84.9105 97.043 80.6017C97.1514 76.293 95.5963 72.1078 92.7002 68.914L72.8833 49.1923Z" fill="url(#paint1_radial_290_6)"/>
<path d="M72.224 49.1201L92.216 29.1412C93.8703 27.6432 95.2028 25.8249 96.1327 23.7966C97.0626 21.7684 97.5704 19.5724 97.6254 17.3421C97.6803 15.1118 97.2812 12.8936 96.4523 10.8221C95.6235 8.75056 94.3822 6.86894 92.8036 5.29139C91.225 3.71385 89.3421 2.47327 87.2692 1.64494C85.1963 0.816612 82.9768 0.417851 80.745 0.472764C78.5132 0.527677 76.3158 1.03513 74.2862 1.9644C72.2566 2.89367 70.4371 4.22534 68.9381 5.87861L48.9462 25.8576L29.1498 6.07418C26.015 3.23559 21.9079 1.71045 17.6789 1.8145C13.4499 1.91856 9.42279 3.64387 6.43151 6.63319C3.44023 9.62252 1.7136 13.6469 1.60948 17.8732C1.50535 22.0994 3.03156 26.2039 5.87201 29.3367L25.6786 49.1201L5.73823 69.0373C2.89778 72.1701 1.37158 76.2746 1.4757 80.5009C1.57982 84.7271 3.3062 88.7515 6.29748 91.7408C9.28876 94.7302 13.3158 96.4555 17.5449 96.5595C21.7739 96.6636 25.8809 95.1385 29.0158 92.2999L48.9462 72.3826L68.9484 92.3513C72.087 95.1675 76.1868 96.6739 80.4033 96.5601C84.6198 96.4464 88.6322 94.7212 91.6142 91.7398C94.5962 88.7585 96.3205 84.748 96.4325 80.5342C96.5444 76.3204 95.0354 72.2241 92.216 69.0888L72.224 49.1201Z" fill="url(#paint2_radial_290_6)"/>
<path d="M71.5753 49.1205L91.691 28.9562C94.6036 25.9086 96.2071 21.8429 96.1582 17.6289C96.1093 13.4149 94.412 9.38742 91.4294 6.40815C88.4469 3.42888 84.4159 1.73448 80.1992 1.68753C75.9824 1.64058 71.9148 3.24479 68.8665 6.15691L48.7096 26.3006L28.8308 6.43485C25.8054 3.41147 21.7022 1.71291 17.4237 1.71291C13.1452 1.71291 9.04201 3.41147 6.01666 6.43485C2.9913 9.45822 1.29169 13.5588 1.29169 17.8345C1.29169 22.1102 2.9913 26.2107 6.01666 29.2341L25.8955 49.0999L5.81071 69.1715C4.25564 70.6558 3.01283 72.4357 2.15571 74.4066C1.29859 76.3775 0.844371 78.4997 0.819444 80.6486C0.794517 82.7974 1.19945 84.9296 2.01062 86.9198C2.82179 88.9101 4.02268 90.7182 5.5429 92.2381C7.06312 93.758 8.87216 94.959 10.8633 95.7706C12.8545 96.5821 14.9878 96.9878 17.1381 96.9639C19.2883 96.9399 21.412 96.4868 23.3846 95.6312C25.3572 94.7755 27.1389 93.5345 28.6248 91.9811L48.7096 71.9095L68.8871 92.0737C70.3731 93.6271 72.1545 94.8681 74.1271 95.7238C76.0997 96.5795 78.2236 97.0326 80.3739 97.0565C82.5242 97.0805 84.6575 96.6747 86.6486 95.8632C88.6398 95.0517 90.4486 93.8507 91.9688 92.3308C93.489 90.8109 94.6899 89.0027 95.5011 87.0124C96.3123 85.0222 96.7175 82.89 96.6925 80.7412C96.6676 78.5923 96.2131 76.4701 95.356 74.4992C94.4989 72.5283 93.2563 70.7485 91.7013 69.2642L71.5753 49.1205Z" fill="url(#paint3_radial_290_6)"/>
<path d="M70.9279 49.0585L91.2598 28.7399C92.7281 27.2719 93.8927 25.5293 94.687 23.6116C95.4814 21.6939 95.8897 19.6386 95.8893 17.563C95.8888 15.4875 95.4792 13.4324 94.684 11.515C93.8888 9.59765 92.7235 7.85558 91.2546 6.38829C89.7856 4.92101 88.042 3.75725 86.123 2.96342C84.204 2.16959 82.1474 1.76124 80.0705 1.76172C77.9937 1.7622 75.937 2.17147 74.0184 2.96619C72.0997 3.7609 70.3568 4.92548 68.8885 6.39344L48.5566 26.7121L28.5953 6.76398C25.63 3.79657 21.6067 2.12787 17.4103 2.12497C13.2139 2.12207 9.18808 3.78527 6.21872 6.74859C3.24937 9.71191 1.57964 13.7326 1.57674 17.9263C1.57384 22.12 3.23813 26.143 6.20338 29.1104L26.1644 49.0585L5.92527 69.2743C4.42091 70.7343 3.22196 72.4786 2.39826 74.4059C1.57457 76.3331 1.1427 78.4049 1.12738 80.5005C1.11205 82.5961 1.51357 84.6738 2.30899 86.6129C3.10442 88.552 4.27772 90.3137 5.76056 91.7955C7.2434 93.2774 9.00637 94.4499 10.9467 95.2448C12.887 96.0397 14.966 96.4411 17.063 96.4258C19.16 96.4105 21.2332 95.9787 23.1617 95.1556C25.0902 94.3324 26.8356 93.1343 28.2966 91.6309L48.5257 71.4152L68.8782 91.7442C70.3465 93.2114 72.0894 94.3754 74.0078 95.1695C75.9262 95.9636 77.9823 96.3723 80.0587 96.3723C82.1351 96.3723 84.191 95.9636 86.1094 95.1695C88.0278 94.3754 89.771 93.2114 91.2392 91.7442C92.7075 90.2769 93.872 88.535 94.6666 86.6179C95.4613 84.7008 95.8704 82.646 95.8704 80.571C95.8704 78.4959 95.4613 76.4412 94.6666 74.5241C93.872 72.607 92.7075 70.8651 91.2392 69.3978L70.9279 49.0585Z" fill="url(#paint4_radial_290_6)"/>
<path d="M70.2685 49.0176L90.7757 28.5343C93.6809 25.631 95.3128 21.6933 95.3128 17.5875C95.3128 13.4817 93.6809 9.54399 90.7757 6.64073C87.8706 3.73747 83.9303 2.10645 79.8218 2.10645C75.7133 2.10645 71.773 3.73747 68.8679 6.64073L48.3606 27.1344L28.3274 7.10393C25.4223 4.19931 21.4815 2.56697 17.372 2.56601C13.2625 2.56504 9.32108 4.19552 6.41455 7.09878C3.50803 10.002 1.87462 13.9403 1.87365 18.0471C1.87269 22.1539 3.50411 26.0928 6.40927 28.9975L26.4528 49.0279L6.06955 69.3877C4.62835 70.8253 3.48448 72.5325 2.70348 74.4117C1.92247 76.291 1.5195 78.3056 1.51758 80.3405C1.51567 82.3755 1.91495 84.3908 2.69241 86.2715C3.46988 88.1523 4.61044 89.8616 6.04893 91.3018C7.48742 92.7421 9.19564 93.8851 11.0762 94.6656C12.9567 95.4461 14.9726 95.8488 17.0089 95.8507C19.0451 95.8526 21.0617 95.4537 22.9436 94.6767C24.8256 93.8998 26.536 92.76 27.9771 91.3224L48.3606 70.9523L68.8885 91.4665C71.7936 94.3698 75.7339 96.0008 79.8424 96.0008C83.9509 96.0008 87.8909 94.3698 90.7961 91.4665C93.7012 88.5633 95.3335 84.6256 95.3335 80.5198C95.3335 76.4139 93.7012 72.4763 90.7961 69.573L70.2685 49.0176Z" fill="url(#paint5_radial_290_6)"/>
<path d="M69.6189 48.9762L90.3009 28.3076C92.9074 25.4196 94.3038 21.641 94.2013 17.7531C94.0987 13.8653 92.5051 10.1655 89.7499 7.41879C86.9947 4.67203 83.2888 3.0884 79.3982 2.99526C75.5076 2.90213 71.73 4.30662 68.8464 6.91839L48.1642 27.5047L28.0485 7.40214C26.6457 5.96776 24.9722 4.82578 23.1246 4.04236C21.277 3.25893 19.2921 2.84962 17.2852 2.83814C15.2782 2.82666 13.289 3.21328 11.4326 3.97551C9.57622 4.73775 7.88945 5.86046 6.47029 7.27869C5.05112 8.69692 3.92781 10.3825 3.16507 12.2377C2.40234 14.0929 2.01547 16.0809 2.02696 18.0866C2.03845 20.0922 2.44802 22.0756 3.23196 23.922C4.0159 25.7683 5.15844 27.4409 6.59375 28.8428L26.7094 48.9556L6.20248 69.4904C3.41103 72.3446 1.85824 76.1837 1.88111 80.1747C1.90397 84.1657 3.50072 87.9868 6.32469 90.8089C9.14866 93.6311 12.9722 95.2266 16.9658 95.2495C20.9594 95.2723 24.8011 93.7206 27.6572 90.931L48.1848 70.4168L68.8876 91.106C71.7761 93.6944 75.5471 95.0787 79.4254 94.9742C83.3037 94.8697 86.9944 93.2843 89.7391 90.5441C92.4838 87.8038 94.0739 84.1169 94.1822 80.2412C94.2905 76.3655 92.9089 72.5956 90.3215 69.7066L69.6189 48.9762Z" fill="url(#paint6_radial_290_6)"/>
<path d="M68.9694 48.9247L89.8163 28.0914C92.5234 25.2923 94.0218 21.5425 93.9886 17.6499C93.9554 13.7573 92.3934 10.0335 89.639 7.28095C86.8847 4.52837 83.1584 2.96729 79.2632 2.93413C75.3681 2.90097 71.6159 4.39837 68.815 7.10366L47.968 27.937L27.7699 7.75213C26.3996 6.33528 24.7607 5.20529 22.9489 4.42803C21.137 3.65077 19.1884 3.24179 17.2168 3.22501C15.2451 3.20822 13.2899 3.58392 11.4651 4.33022C9.64025 5.07651 7.98222 6.17851 6.58799 7.57183C5.19376 8.96515 4.09117 10.622 3.34439 12.4456C2.5976 14.2693 2.22166 16.2232 2.23846 18.1936C2.25525 20.164 2.66444 22.1113 3.44221 23.922C4.21997 25.7327 5.35076 27.3705 6.76854 28.7399L26.9665 48.9247L6.29479 69.5934C3.51119 72.3751 1.94727 76.148 1.94727 80.0821C1.94727 84.0161 3.51119 87.789 6.29479 90.5708C9.07839 93.3526 12.8537 94.9153 16.7903 94.9153C20.7269 94.9153 24.5022 93.3526 27.2858 90.5708L47.968 69.9124L68.8459 90.7766C70.2242 92.1547 71.8606 93.248 73.6617 93.994C75.4628 94.7401 77.3932 95.1244 79.3429 95.1249C81.2926 95.1253 83.2233 94.742 85.0247 93.9968C86.8262 93.2517 88.4632 92.1591 89.8422 90.7817C91.2212 89.4044 92.3151 87.7691 93.0617 85.9692C93.8082 84.1692 94.1928 82.2399 94.1933 80.2915C94.1937 78.3431 93.8101 76.4137 93.0645 74.6135C92.3188 72.8132 91.2255 71.1773 89.8473 69.7992L68.9694 48.9247Z" fill="url(#paint7_radial_290_6)"/>
<path d="M68.3111 48.8839L89.3434 27.8756C90.696 26.5273 91.7697 24.9259 92.503 23.163C93.2363 21.4 93.6148 19.5099 93.6172 17.6007C93.6196 15.6914 93.2457 13.8004 92.5168 12.0356C91.7879 10.2708 90.7185 8.66678 89.3693 7.31507C88.0201 5.96336 86.4175 4.89042 84.6534 4.15758C82.8892 3.42475 80.998 3.04635 79.0875 3.04396C77.177 3.04157 75.2849 3.41528 73.5189 4.1437C71.7529 4.87212 70.1478 5.94098 68.7952 7.28931L47.7732 28.2976L27.4926 8.04075C26.1472 6.67886 24.5456 5.59631 22.7799 4.85543C21.0142 4.11456 19.1193 3.72999 17.2043 3.72384C15.2893 3.7177 13.392 4.0901 11.6216 4.81962C9.85115 5.54915 8.24267 6.62137 6.88855 7.9746C5.53443 9.32783 4.46145 10.9353 3.73145 12.7046C3.00145 14.4738 2.62893 16.3699 2.63508 18.2837C2.64122 20.1975 3.02605 22.0911 3.76741 23.8556C4.50876 25.6201 5.5919 27.2208 6.95469 28.5653L27.2248 48.8324L6.39845 69.7069C3.67495 72.43 2.14552 76.1227 2.14648 79.9728C2.14745 83.8229 3.67887 87.5149 6.40373 90.2366C9.1286 92.9583 12.8236 94.4868 16.6762 94.4859C20.5288 94.4849 24.2232 92.9545 26.9467 90.2315L47.7732 69.429L68.8261 90.4682C71.5704 93.0959 75.2355 94.5448 79.036 94.5042C82.8364 94.4636 86.4696 92.9369 89.1571 90.2512C91.8445 87.5655 93.3725 83.9345 93.413 80.1365C93.4536 76.3386 92.0038 72.6758 89.3743 69.9333L68.3111 48.8839Z" fill="url(#paint8_radial_290_6)"/>
<path d="M67.6624 48.8425L88.8596 27.6593C91.5244 24.9976 93.0221 21.3871 93.0231 17.6219C93.024 13.8568 91.5281 10.2455 88.8647 7.58248C86.2012 4.91945 82.5884 3.42284 78.8208 3.42188C75.0532 3.42091 71.4396 4.91567 68.7749 7.57733L47.5776 28.7606L27.2148 8.42137C24.5385 5.82245 20.9463 4.38047 17.2146 4.40721C13.483 4.43395 9.91183 5.92723 7.27309 8.56424C4.63436 11.2012 3.14017 14.7701 3.11341 18.4993C3.08666 22.2285 4.52939 25.8184 7.13001 28.493L27.4826 48.8425L6.51217 69.7994C5.16218 71.1103 4.08629 72.6764 3.34727 74.4065C2.60826 76.1366 2.22089 77.9962 2.2074 79.8773C2.1939 81.7584 2.5547 83.6234 3.26882 85.3639C3.98293 87.1044 5.03604 88.6858 6.36708 90.0159C7.69812 91.3461 9.28048 92.3986 11.0221 93.1122C12.7638 93.8259 14.63 94.1865 16.5123 94.173C18.3946 94.1595 20.2554 93.7722 21.9866 93.0337C23.7179 92.2952 25.2851 91.2201 26.5969 89.871L47.5776 68.9141L68.8058 90.1386C71.4927 92.6922 75.0719 94.0955 78.7795 94.049C82.4872 94.0024 86.0297 92.5099 88.6517 89.8897C91.2736 87.2695 92.7673 83.729 92.8139 80.0238C92.8604 76.3185 91.4562 72.7419 88.9009 70.0567L67.6624 48.8425Z" fill="url(#paint9_radial_290_6)"/>
<path d="M66.9723 48.7909L88.3446 27.4326C89.6336 26.1437 90.6559 24.6138 91.3533 22.93C92.0507 21.2463 92.4094 19.4419 92.4089 17.6196C92.4084 15.7974 92.0488 13.9931 91.3505 12.3097C90.6523 10.6264 89.6292 9.09691 88.3395 7.80873C87.0498 6.52054 85.5186 5.49886 83.8338 4.80195C82.149 4.10505 80.3434 3.74659 78.5199 3.74707C76.6965 3.74755 74.891 4.10693 73.2066 4.80472C71.5221 5.5025 69.9916 6.52502 68.7026 7.81388L47.4026 29.1721L26.9675 8.75059C24.3642 6.14762 20.8328 4.68468 17.1502 4.68372C13.4676 4.68275 9.93553 6.14383 7.33086 8.74544C4.72619 11.347 3.26242 14.8761 3.26146 18.5563C3.26049 22.2365 4.72253 25.7663 7.32583 28.3693L27.7606 48.7909L6.64588 69.9021C5.31544 71.181 4.25369 72.7122 3.52247 74.4061C2.79126 76.1 2.40531 77.9226 2.38737 79.7673C2.36944 81.612 2.71972 83.4418 3.41786 85.1496C4.11601 86.8574 5.14794 88.4089 6.45326 89.7133C7.75858 91.0178 9.31116 92.0491 11.0201 92.7467C12.729 93.4444 14.5599 93.7945 16.4059 93.7766C18.2518 93.7587 20.0755 93.3731 21.7706 92.6423C23.4656 91.9116 24.9978 90.8504 26.2775 89.5208L47.4026 68.4199L68.8057 89.8091C71.409 92.412 74.9404 93.8749 78.623 93.8759C82.3056 93.8769 85.8377 92.4158 88.4424 89.8142C91.047 87.2126 92.5108 83.6835 92.5118 80.0033C92.5127 76.3231 91.051 72.7933 88.4476 70.1903L66.9723 48.7909Z" fill="url(#paint10_radial_290_6)"/>
<path d="M66.3651 48.7501L87.9023 27.2168C89.2109 25.9695 90.2565 24.4734 90.978 22.8163C91.6995 21.1592 92.0822 19.3747 92.1035 17.5676C92.1249 15.7606 91.7846 13.9676 91.1024 12.294C90.4203 10.6203 89.4101 9.09985 88.1314 7.822C86.8527 6.54416 85.3314 5.53474 83.6567 4.85305C81.9819 4.17135 80.1877 3.83117 78.3795 3.85251C76.5713 3.87384 74.7856 4.25623 73.1274 4.97725C71.4693 5.69828 69.972 6.74333 68.7238 8.051L47.1766 29.5637L26.6696 9.05977C24.1065 6.61651 20.6887 5.27207 17.1468 5.31386C13.6048 5.35566 10.2196 6.78036 7.71494 9.28342C5.21024 11.7865 3.78467 15.1693 3.74285 18.709C3.70103 22.2486 5.04628 25.6641 7.49114 28.2256L27.9981 48.7295L6.72896 69.9849C5.46029 71.2419 4.45258 72.737 3.76372 74.3843C3.07486 76.0317 2.71845 77.7988 2.71487 79.5842C2.7113 81.3696 3.06059 83.138 3.74285 84.7881C4.4251 86.4382 5.42686 87.9373 6.69048 89.1995C7.95411 90.4616 9.45463 91.4619 11.1062 92.1428C12.7577 92.8237 14.5276 93.1719 16.3142 93.1673C18.1007 93.1628 19.8689 92.8056 21.5169 92.1163C23.165 91.427 24.6603 90.4192 25.9175 89.1507L47.1766 67.8953L68.8063 89.5109C70.0545 90.8186 71.5515 91.8637 73.2097 92.5847C74.8678 93.3057 76.6535 93.6882 78.4617 93.7095C80.2699 93.7308 82.0641 93.3906 83.7389 92.709C85.4136 92.0273 86.9352 91.0178 88.2139 89.7399C89.4926 88.4621 90.5025 86.9417 91.1847 85.268C91.8668 83.5944 92.2073 81.8013 92.186 79.9943C92.1646 78.1873 91.7819 76.4028 91.0604 74.7457C90.3389 73.0886 89.2931 71.5924 87.9846 70.3451L66.3651 48.7501Z" fill="url(#paint11_radial_290_6)"/>
<path d="M65.7058 48.7081L87.4284 26.9999C89.8006 24.4961 91.1013 21.166 91.0542 17.7183C91.0071 14.2706 89.6156 10.9773 87.1759 8.53917C84.7362 6.10103 81.4408 4.71044 77.9908 4.66335C74.5408 4.61625 71.2085 5.91636 68.703 8.28699L46.9807 29.9952L26.381 9.40891C23.8755 7.03828 20.5432 5.73823 17.0933 5.78533C13.6433 5.83242 10.3478 7.22294 7.90811 9.66109C5.46837 12.0992 4.07694 15.3926 4.02981 18.8403C3.98268 22.288 5.28346 25.618 7.65564 28.1218L28.2554 48.7081L6.84216 70.1076C4.46998 72.6114 3.16895 75.9415 3.21608 79.3892C3.26321 82.8369 4.65464 86.1302 7.09438 88.5683C9.53411 91.0065 12.8295 92.397 16.2795 92.4441C19.7295 92.4912 23.0618 91.1911 25.5673 88.8205L46.9807 67.4108L68.7546 89.1704C71.26 91.5411 74.5923 92.8412 78.0423 92.7941C81.4923 92.747 84.7877 91.3564 87.2275 88.9183C89.6672 86.4801 91.0586 83.1869 91.1058 79.7391C91.1529 76.2914 89.8519 72.9614 87.4797 70.4575L65.7058 48.7081Z" fill="url(#paint12_radial_290_6)"/>
<path d="M65.0557 48.6569L86.9429 26.784C89.3659 24.3626 90.7272 21.0784 90.7272 17.654C90.7272 14.2296 89.3659 10.9454 86.9429 8.52396C84.5199 6.10253 81.2337 4.74219 77.8071 4.74219C74.3804 4.74219 71.094 6.10253 68.6709 8.52396L46.7837 30.4072L26.112 9.73855C24.9123 8.53957 23.488 7.58854 21.9204 6.93966C20.3529 6.29078 18.6726 5.95677 16.9759 5.95677C15.2792 5.95677 13.5992 6.29078 12.0317 6.93966C10.4641 7.58854 9.03983 8.53957 7.84007 9.73855C6.64032 10.9375 5.68859 12.3609 5.03929 13.9274C4.38999 15.494 4.05582 17.173 4.05582 18.8686C4.05582 20.5642 4.38999 22.2432 5.03929 23.8097C5.68859 25.3762 6.64032 26.7996 7.84007 27.9986L28.5221 48.6569L6.95417 70.2108C4.53116 72.6322 3.16992 75.9163 3.16992 79.3408C3.16992 82.7652 4.53116 86.0493 6.95417 88.4708C9.37719 90.8922 12.6636 92.2525 16.0903 92.2525C19.5169 92.2525 22.8031 90.8922 25.2261 88.4708L46.7837 66.9169L68.7328 88.8516C71.1558 91.273 74.4423 92.6334 77.8689 92.6334C81.2956 92.6334 84.5818 91.273 87.0048 88.8516C89.4278 86.4302 90.789 83.146 90.789 79.7216C90.789 76.2972 89.4278 73.013 87.0048 70.5916L65.0557 48.6569Z" fill="url(#paint13_radial_290_6)"/>
<path d="M64.4077 48.6163L86.47 26.5684C87.64 25.3992 88.5682 24.0111 89.2014 22.4834C89.8346 20.9557 90.1604 19.3184 90.1604 17.6648C90.1604 16.0113 89.8346 14.3739 89.2014 12.8462C88.5682 11.3186 87.64 9.93045 86.47 8.76122C85.3 7.59199 83.9111 6.66454 82.3825 6.03175C80.8538 5.39897 79.2153 5.07324 77.5607 5.07324C75.9061 5.07324 74.2676 5.39897 72.7389 6.03175C71.2102 6.66454 69.8211 7.59199 68.6511 8.76122L46.5889 30.8092L25.8347 10.0788C23.4529 7.81904 20.2821 6.57824 16.9981 6.62086C13.7142 6.66347 10.5768 7.98611 8.25454 10.3069C5.93225 12.6277 4.60874 15.7631 4.5661 19.0449C4.52346 22.3267 5.765 25.4953 8.02622 27.8756L28.7804 48.6163L7.0684 70.3142C5.84874 71.4714 4.87319 72.8609 4.19947 74.4008C3.52575 75.9407 3.16743 77.5998 3.14559 79.2803C3.12376 80.9609 3.43875 82.6287 4.07223 84.1856C4.70571 85.7425 5.64485 87.1568 6.83404 88.3452C8.02322 89.5336 9.43834 90.472 10.9962 91.1051C12.5541 91.7382 14.2232 92.0531 15.9048 92.0312C17.5864 92.0094 19.2467 91.6513 20.7877 90.978C22.3286 90.3047 23.7188 89.3299 24.8767 88.1111L46.5889 66.4131L68.713 88.5228C71.0811 90.8476 74.2718 92.1442 77.5914 92.1309C80.9109 92.1176 84.091 90.7953 86.4403 88.4516C88.7896 86.1079 90.1182 82.9322 90.1373 79.6149C90.1564 76.2976 88.8643 73.1068 86.5421 70.7362L64.4077 48.6163Z" fill="url(#paint14_radial_290_6)"/>
<path d="M63.7484 48.5749L85.9857 26.352C88.2912 24.0521 89.5882 20.931 89.5911 17.6755C89.594 14.42 88.3027 11.2967 86.0013 8.99263C83.6998 6.68859 80.5767 5.39255 77.319 5.38965C74.0614 5.38676 70.9361 6.67723 68.6305 8.97717L46.3724 31.2206L25.5358 10.4079C23.2343 8.10799 20.1128 6.81589 16.8581 6.81589C13.6033 6.81589 10.4818 8.10799 8.18037 10.4079C5.87892 12.7079 4.58598 15.8273 4.58598 19.0799C4.58598 22.3325 5.87892 25.4519 8.18037 27.7519L29.017 48.5749L7.15039 70.4169C4.91305 72.7313 3.67533 75.8315 3.7036 79.0494C3.73186 82.2673 5.02387 85.3453 7.30151 87.6201C9.57916 89.8949 12.6599 91.1844 15.8799 91.2107C19.0999 91.2371 22.2015 89.9981 24.5161 87.7609L46.3724 65.9188L68.6921 88.2344C69.8317 89.3732 71.1846 90.2765 72.6735 90.8928C74.1624 91.5092 75.7582 91.8264 77.3698 91.8264C78.9814 91.8264 80.5772 91.5092 82.0661 90.8929C83.555 90.2766 84.908 89.3732 86.0475 88.2344C87.1871 87.0956 88.091 85.7436 88.7077 84.2556C89.3245 82.7677 89.6419 81.1729 89.6419 79.5624C89.6419 77.9519 89.3245 76.3571 88.7077 74.8692C88.091 73.3812 87.1871 72.0293 86.0475 70.8904L63.7484 48.5749Z" fill="url(#paint15_radial_290_6)"/>
<path d="M63.0988 48.5232L85.5113 26.1356C86.6618 25.035 87.5807 23.7158 88.214 22.2555C88.8474 20.7952 89.1824 19.2231 89.1995 17.6316C89.2166 16.0401 88.9156 14.4612 88.3139 12.9876C87.7121 11.514 86.8216 10.1754 85.6951 9.05031C84.5686 7.92523 83.2286 7.03636 81.7537 6.43587C80.2788 5.83539 78.6987 5.53541 77.1062 5.55351C75.5137 5.5716 73.9407 5.90739 72.4798 6.54123C71.0189 7.17507 69.6996 8.09418 68.599 9.24456L46.1968 31.6218L25.288 10.7268C24.1873 9.57639 22.8678 8.65728 21.4069 8.02345C19.946 7.38961 18.3733 7.05381 16.7808 7.03572C15.1882 7.01763 13.6079 7.31761 12.133 7.91809C10.6581 8.51857 9.31808 9.40744 8.19158 10.5325C7.06508 11.6576 6.17488 12.9963 5.57311 14.4699C4.97133 15.9435 4.67007 17.5223 4.68721 19.1138C4.70434 20.7053 5.03958 22.2774 5.67294 23.7377C6.3063 25.198 7.22518 26.5172 8.37565 27.6178L29.2945 48.5129L7.2838 70.5094C5.04245 72.7493 3.7832 75.7871 3.7832 78.9548C3.7832 82.1225 5.04245 85.1605 7.2838 87.4004C9.52516 89.6403 12.5649 90.8986 15.7347 90.8986C18.9044 90.8986 21.9445 89.6403 24.1858 87.4004L46.1968 65.4039L68.6709 87.8739C70.9123 90.1138 73.9523 91.3721 77.122 91.3721C80.2918 91.3721 83.3318 90.1138 85.5732 87.8739C87.8145 85.634 89.0738 82.596 89.0738 79.4283C89.0738 76.2607 87.8145 73.2227 85.5732 70.9828L63.0988 48.5232Z" fill="url(#paint16_radial_290_6)"/>
<path d="M62.4499 48.4825L85.0272 25.9199C87.2125 23.736 88.4403 20.774 88.4403 17.6854C88.4403 14.5969 87.2125 11.6348 85.0272 9.4509C83.9451 8.36953 82.6605 7.51172 81.2467 6.92649C79.8329 6.34126 78.3176 6.04004 76.7873 6.04004C73.6967 6.04004 70.7327 7.26697 68.5474 9.4509L45.9701 32.0134L25.0098 11.036C23.9277 9.95465 22.6431 9.09685 21.2293 8.51161C19.8155 7.92638 18.3002 7.62516 16.7699 7.62516C15.2396 7.62516 13.7243 7.92638 12.3105 8.51161C10.8967 9.09685 9.61206 9.95465 8.52998 11.036C7.4479 12.1174 6.58966 13.4011 6.00405 14.814C5.41843 16.2269 5.11689 17.7412 5.11689 19.2705C5.11689 20.7998 5.41843 22.3142 6.00405 23.727C6.58966 25.1399 7.4479 26.4237 8.52998 27.505L29.521 48.4825L7.36596 70.623C6.28389 71.7044 5.42565 72.9882 4.84003 74.401C4.25441 75.8139 3.95312 77.3283 3.95312 78.8575C3.95312 80.3868 4.25441 81.9011 4.84003 83.314C5.42565 84.7269 6.28389 86.0107 7.36596 87.0921C8.44804 88.1734 9.73289 89.0312 11.1467 89.6165C12.5605 90.2017 14.0756 90.5029 15.6059 90.5029C17.1362 90.5029 18.6515 90.2017 20.0653 89.6165C21.4791 89.0312 22.7637 88.1734 23.8458 87.0921L46.0008 64.9515L68.6605 87.5964C69.7426 88.6778 71.0275 89.5356 72.4413 90.1208C73.8551 90.7061 75.3701 91.0073 76.9004 91.0073C78.4307 91.0073 79.9461 90.7061 81.3599 90.1208C82.7737 89.5356 84.0583 88.6778 85.1403 87.5964C86.2224 86.515 87.0809 85.2313 87.6665 83.8184C88.2521 82.4055 88.5534 80.8912 88.5534 79.3619C88.5534 77.8326 88.2521 76.3183 87.6665 74.9054C87.0809 73.4925 86.2224 72.2088 85.1403 71.1274L62.4499 48.4825Z" fill="url(#paint17_radial_290_6)"/>
<path d="M61.8222 48.441L84.5851 25.6931C85.7469 24.6702 86.6866 23.4202 87.3461 22.0201C88.0056 20.6201 88.3709 19.0998 88.4196 17.5532C88.4683 16.0066 88.199 14.4664 87.6288 13.0277C87.0585 11.5891 86.1993 10.2825 85.1041 9.18871C84.0088 8.09489 82.7009 7.23701 81.261 6.66807C79.821 6.09914 78.2795 5.83121 76.7319 5.88082C75.1843 5.93044 73.6634 6.29656 72.2629 6.95656C70.8624 7.61656 69.6122 8.5564 68.5893 9.71813L45.8368 32.4557L24.7427 11.3959C22.5831 9.47548 19.7708 8.45265 16.8812 8.53672C13.9917 8.62079 11.2437 9.80545 9.19958 11.8482C7.1555 13.8909 5.96994 16.6372 5.88581 19.5248C5.80169 22.4125 6.82525 25.2231 8.74695 27.3812L29.8205 48.441L7.5007 70.7359C5.57901 72.894 4.55544 75.7046 4.63957 78.5922C4.72369 81.4799 5.90926 84.2262 7.95333 86.2689C9.99741 88.3117 12.7455 89.4963 15.635 89.5804C18.5245 89.6645 21.3369 88.6416 23.4964 86.7212L45.8059 64.4262L68.6306 87.2049C70.7901 89.1254 73.6025 90.1483 76.492 90.0642C79.3815 89.9801 82.1296 88.7955 84.1737 86.7527C86.2177 84.71 87.4031 81.9637 87.4872 79.076C87.5713 76.1884 86.5477 73.3778 84.626 71.2197L61.8222 48.441Z" fill="url(#paint18_radial_290_6)"/>
<path d="M61.1419 48.3896L84.0694 25.4462C85.8913 23.3456 86.8473 20.6321 86.7445 17.8541C86.6417 15.0762 85.4877 12.4408 83.5155 10.4803C81.5433 8.51988 78.9 7.38056 76.1197 7.29261C73.3394 7.20466 70.6294 8.17463 68.5371 10.0065L45.6096 32.919L24.4536 11.7769C23.4426 10.7157 22.2292 9.86747 20.8851 9.28207C19.541 8.69666 18.0935 8.38594 16.6274 8.36822C15.1613 8.35051 13.7064 8.62615 12.3485 9.17891C10.9906 9.73166 9.7571 10.5503 8.72068 11.5868C7.68426 12.6232 6.8659 13.8564 6.31369 15.2138C5.76147 16.5711 5.48654 18.0251 5.50524 19.4903C5.52394 20.9554 5.83589 22.402 6.42257 23.7448C7.00925 25.0876 7.85881 26.2996 8.92135 27.3093L30.067 48.4411L7.61349 70.8802C5.55243 72.9399 4.39453 75.7334 4.39453 78.6463C4.39453 81.5592 5.55243 84.3528 7.61349 86.4125C9.67456 88.4722 12.4699 89.6293 15.3847 89.6293C18.2995 89.6293 21.0948 88.4722 23.1558 86.4125L45.6096 63.9734L68.6093 86.9683C69.6299 87.9882 70.8414 88.7972 72.1748 89.3491C73.5082 89.9011 74.9372 90.1852 76.3805 90.1852C77.8238 90.1852 79.2528 89.9011 80.5862 89.3491C81.9196 88.7972 83.1311 87.9882 84.1517 86.9683C85.1722 85.9485 85.9817 84.7377 86.534 83.4052C87.0863 82.0727 87.3706 80.6444 87.3706 79.2021C87.3706 77.7598 87.0863 76.3316 86.534 74.9991C85.9817 73.6666 85.1722 72.4558 84.1517 71.436L61.1419 48.3896Z" fill="url(#paint19_radial_290_6)"/>
<path d="M60.4934 48.3487L83.5959 25.2612C85.5001 23.2424 86.5421 20.5615 86.5006 17.7875C86.4591 15.0136 85.3376 12.365 83.3739 10.404C81.4103 8.44294 78.759 7.32386 75.9832 7.28429C73.2074 7.24471 70.5256 8.28775 68.5067 10.192L45.4042 33.2795L24.176 12.0653C22.1764 10.0671 19.4643 8.94442 16.6364 8.94442C13.8086 8.94442 11.0967 10.0671 9.09712 12.0653C7.09752 14.0636 5.97422 16.7739 5.97422 19.5999C5.97422 22.426 7.09752 25.1362 9.09712 27.1345L30.325 48.3487L7.72716 70.9318C5.82167 72.9493 4.77789 75.6295 4.81749 78.4035C4.85709 81.1774 5.97709 83.8268 7.93939 85.7892C9.9017 87.7515 12.5518 88.8724 15.3276 88.9138C18.1033 88.9553 20.7862 87.9142 22.8063 86.0113L45.4042 63.3664L68.5995 86.5465C70.6197 88.4494 73.3022 89.4906 76.078 89.4491C78.8538 89.4076 81.5041 88.2868 83.4664 86.3244C85.4287 84.3621 86.5485 81.7127 86.5881 78.9387C86.6277 76.1648 85.5839 73.4846 83.6784 71.4671L60.4934 48.3487Z" fill="url(#paint20_radial_290_6)"/>
<path d="M59.8334 48.3073L83.111 25.0448C85.0505 23.1065 86.1401 20.4777 86.1401 17.7367C86.1401 14.9956 85.0505 12.3667 83.111 10.4285C81.1715 8.49026 78.5411 7.40137 75.7982 7.40137C73.0553 7.40137 70.4247 8.49026 68.4852 10.4285L45.2076 33.691L23.897 12.3945C21.9575 10.4563 19.3271 9.36739 16.5842 9.36739C13.8414 9.36739 11.2107 10.4563 9.27123 12.3945C7.33172 14.3328 6.24212 16.9615 6.24212 19.7026C6.24212 22.4437 7.33172 25.0726 9.27123 27.0108L30.5816 48.3073L7.83966 71.0345C6.87931 71.9942 6.11736 73.1336 5.59762 74.3875C5.07789 75.6414 4.81055 76.9854 4.81055 78.3427C4.81055 79.6999 5.07789 81.0439 5.59762 82.2978C6.11736 83.5517 6.87931 84.6911 7.83966 85.6508C8.8 86.6105 9.93991 87.3718 11.1947 87.8912C12.4494 88.4106 13.7943 88.6779 15.1524 88.6779C16.5106 88.6779 17.8554 88.4106 19.1102 87.8912C20.3649 87.3718 21.5051 86.6105 22.4654 85.6508L45.2076 62.9235L68.578 86.2684C70.5175 88.2066 73.1479 89.2955 75.8908 89.2955C78.6336 89.2955 81.2643 88.2066 83.2038 86.2684C85.1433 84.3302 86.2329 81.7013 86.2329 78.9602C86.2329 76.2192 85.1433 73.5904 83.2038 71.6521L59.8334 48.3073Z" fill="url(#paint21_radial_290_6)"/>
<path d="M59.185 48.2558L82.6378 24.8287C84.4968 22.9462 85.5353 20.4054 85.5266 17.7606C85.5179 15.1158 84.4626 12.5819 82.5913 10.7117C80.7199 8.84156 78.1843 7.78708 75.5378 7.77837C72.8913 7.76967 70.3488 8.80748 68.4652 10.6653L45.0123 34.1027L23.6298 12.7239C21.7461 10.8661 19.2037 9.8283 16.5572 9.837C13.9107 9.84571 11.375 10.9002 9.50365 12.7703C7.63228 14.6405 6.57704 17.1745 6.56834 19.8192C6.55963 22.464 7.59811 25.0049 9.45713 26.8873L30.8397 48.2558L7.94308 71.1375C7.00242 72.0652 6.25482 73.1697 5.74304 74.3875C5.23125 75.6052 4.96534 76.9121 4.96099 78.2328C4.95664 79.5536 5.21388 80.8621 5.71764 82.0832C6.2214 83.3043 6.96177 84.4137 7.89631 85.3476C8.83084 86.2815 9.94094 87.0215 11.1628 87.5249C12.3846 88.0283 13.6941 88.2853 15.0157 88.2809C16.3373 88.2766 17.645 88.011 18.8636 87.4996C20.0821 86.9881 21.1874 86.2409 22.1157 85.3009L45.0123 62.4192L68.5579 85.9493C69.4899 86.8793 70.596 87.6167 71.8131 88.1195C73.0302 88.6223 74.3344 88.8806 75.6514 88.8797C76.9684 88.8787 78.2724 88.6185 79.4887 88.114C80.7051 87.6094 81.8103 86.8704 82.7409 85.939C83.6715 85.0077 84.4094 83.9023 84.9125 82.686C85.4156 81.4697 85.6741 80.1662 85.6732 78.8501C85.6722 77.5339 85.4119 76.2309 84.907 75.0153C84.4021 73.7997 83.6625 72.6953 82.7306 71.7654L59.185 48.2558Z" fill="url(#paint22_radial_290_6)"/>
<path d="M58.5359 48.2144L82.1534 24.6122C83.0794 23.7176 83.8177 22.6477 84.3256 21.4649C84.8334 20.2821 85.1005 19.0102 85.1114 17.7231C85.1222 16.4361 84.8768 15.1598 84.3889 13.9686C83.9011 12.7775 83.1808 11.6953 82.2701 10.7852C81.3594 9.8751 80.2765 9.15535 79.0846 8.66782C77.8927 8.1803 76.6154 7.93481 75.3275 7.94566C74.0396 7.9565 72.767 8.22343 71.5835 8.73096C70.3999 9.23849 69.3292 9.97643 68.4339 10.9017L44.8164 34.5039L23.3514 13.0942C22.4561 12.1689 21.3856 11.4309 20.2021 10.9234C19.0185 10.4159 17.7457 10.1489 16.4578 10.1381C15.1699 10.1273 13.8929 10.3727 12.7009 10.8603C11.509 11.3478 10.4261 12.0675 9.51543 12.9776C8.60474 13.8877 7.88446 14.9699 7.39661 16.1611C6.90877 17.3522 6.66306 18.6286 6.67391 19.9156C6.68476 21.2026 6.95187 22.4746 7.45973 23.6573C7.96759 24.8401 8.7062 25.91 9.63211 26.8046L31.0969 48.2555L8.0562 71.2813C7.13029 72.176 6.39193 73.2458 5.88407 74.4286C5.37621 75.6114 5.10885 76.8834 5.098 78.1704C5.08715 79.4574 5.33286 80.7337 5.8207 81.9249C6.30855 83.116 7.02883 84.1982 7.93952 85.1083C8.85021 86.0184 9.9331 86.7382 11.125 87.2257C12.317 87.7132 13.5943 87.9587 14.8821 87.9479C16.17 87.937 17.4426 87.67 18.6261 87.1625C19.8097 86.655 20.8805 85.917 21.7757 84.9917L44.8164 61.966L68.5061 85.6402C69.4013 86.5655 70.4719 87.3035 71.6554 87.811C72.839 88.3185 74.1118 88.5855 75.3997 88.5964C76.6875 88.6072 77.9646 88.3617 79.1565 87.8742C80.3485 87.3867 81.4314 86.6668 82.342 85.7568C83.2527 84.8467 83.973 83.7645 84.4609 82.5733C84.9487 81.3822 85.1944 80.1058 85.1836 78.8188C85.1727 77.5318 84.9056 76.2598 84.3977 75.0771C83.8899 73.8943 83.1515 72.8244 82.2256 71.9297L58.5359 48.2144Z" fill="url(#paint23_radial_290_6)"/>
<path d="M57.8866 48.1736L81.6794 24.3964C82.584 23.5335 83.3068 22.4985 83.8055 21.3524C84.3041 20.2063 84.5685 18.9721 84.583 17.7224C84.5975 16.4728 84.3621 15.2328 83.8902 14.0754C83.4184 12.918 82.7198 11.8665 81.8355 10.9828C80.9512 10.0991 79.8989 9.40096 78.7408 8.92941C77.5826 8.45787 76.3418 8.22243 75.0913 8.23696C73.8408 8.2515 72.6058 8.5157 71.459 9.01404C70.3121 9.51237 69.2765 10.2348 68.413 11.1388L44.6204 34.916L23.0729 13.3828C21.3001 11.6917 18.9357 10.7608 16.4851 10.7893C14.0345 10.8178 11.6924 11.8034 9.95944 13.5352C8.22648 15.267 7.24023 17.6077 7.21172 20.0567C7.18322 22.5057 8.11462 24.8686 9.80681 26.6403L31.3644 48.1736L8.16904 71.3537C6.41119 73.1104 5.42383 75.493 5.42383 77.9773C5.42383 80.4617 6.41119 82.8443 8.16904 84.601C9.92688 86.3577 12.3111 87.3446 14.7971 87.3446C17.283 87.3446 19.6673 86.3577 21.4251 84.601L44.6204 61.4723L68.5161 85.3524C70.2739 87.1105 72.6587 88.0987 75.1456 88.0997C77.6326 88.1006 80.018 87.1143 81.7772 85.3576C83.5364 83.6009 84.5252 81.2177 84.5262 78.7324C84.5271 76.2471 83.5401 73.8632 81.7822 72.1051L57.8866 48.1736Z" fill="url(#paint24_radial_290_6)"/>
<path d="M57.2287 48.0911L81.1966 24.1493C82.8957 22.4526 83.8508 20.151 83.8518 17.7506C83.8527 15.3502 82.8994 13.0477 81.2016 11.3497C79.5039 9.65173 77.2008 8.69725 74.7989 8.69629C72.3969 8.69532 70.0928 9.64795 68.3936 11.3446L44.4261 35.2967L22.7963 13.6812C21.9595 12.8241 20.9605 12.1415 19.8577 11.673C18.7549 11.2046 17.57 10.9596 16.3717 10.9522C15.1735 10.9449 13.9856 11.1754 12.8772 11.6302C11.7687 12.0851 10.7618 12.7554 9.91443 13.6021C9.06712 14.4489 8.39638 15.4553 7.94121 16.563C7.48605 17.6708 7.25541 18.8578 7.26277 20.0553C7.27013 21.2528 7.51522 22.4369 7.98396 23.539C8.4527 24.6411 9.13573 25.6392 9.99339 26.4755L31.6231 48.0911L8.26308 71.4566C6.59963 73.1603 5.675 75.4504 5.68962 77.8307C5.70425 80.211 6.65703 82.4897 8.34129 84.1728C10.0256 85.856 12.3056 86.8081 14.6874 86.8227C17.0693 86.8373 19.3609 85.9133 21.0658 84.2509L44.4054 60.9266L68.4761 84.9818C70.1809 86.6441 72.4726 87.5681 74.8545 87.5535C77.2363 87.5389 79.5166 86.5868 81.2009 84.9037C82.8851 83.2205 83.8376 80.9419 83.8523 78.5616C83.8669 76.1813 82.9423 73.891 81.2788 72.1873L57.2287 48.0911Z" fill="url(#paint25_radial_290_6)"/>
<path d="M56.579 48.0912L80.7221 23.9744C82.2719 22.3187 83.1171 20.1258 83.0793 17.8588C83.0414 15.5919 82.1236 13.4284 80.5194 11.8252C78.9151 10.222 76.7502 9.30464 74.4818 9.26684C72.2134 9.22905 70.019 10.0738 68.3622 11.6226L44.2294 35.7395L22.5175 14.0518C21.7059 13.2408 20.7423 12.5974 19.682 12.1585C18.6216 11.7196 17.4852 11.4937 16.3375 11.4937C15.1898 11.4937 14.0532 11.7196 12.9928 12.1585C11.9325 12.5974 10.9692 13.2408 10.1576 14.0518C9.34604 14.8628 8.7023 15.8256 8.26309 16.8853C7.82388 17.945 7.59772 19.0807 7.59772 20.2277C7.59772 21.3746 7.82388 22.5104 8.26309 23.5701C8.7023 24.6297 9.34604 25.5925 10.1576 26.4036L31.8799 48.0912L8.38605 71.5699C6.74704 73.2078 5.82617 75.4294 5.82617 77.7458C5.82617 80.0622 6.74704 82.2837 8.38605 83.9217C10.0251 85.5596 12.2481 86.4798 14.566 86.4798C16.8839 86.4798 19.1069 85.5596 20.7459 83.9217L44.2294 60.443L68.4754 84.6833C69.2869 85.4944 70.2505 86.1377 71.3109 86.5767C72.3712 87.0156 73.5076 87.2415 74.6553 87.2415C75.803 87.2415 76.9396 87.0156 78 86.5767C79.0603 86.1377 80.0237 85.4944 80.8352 84.6833C81.6468 83.8723 82.2905 82.9095 82.7297 81.8498C83.1689 80.7902 83.3951 79.6544 83.3951 78.5075C83.3951 77.3605 83.1689 76.2247 82.7297 75.1651C82.2905 74.1054 81.6468 73.1426 80.8352 72.3316L56.579 48.0912Z" fill="url(#paint26_radial_290_6)"/>
<path d="M55.9303 48.0913L80.2379 23.7892C81.814 22.2127 82.6991 20.075 82.6982 17.8464C82.6972 15.6179 81.8104 13.4809 80.2328 11.9058C78.6553 10.3306 76.5163 9.4463 74.2863 9.44727C72.0562 9.44823 69.9179 10.3344 68.3417 11.9109L44.0339 36.2028L22.2394 14.4328C20.6534 12.9287 18.5431 12.1015 16.3567 12.1268C14.1704 12.1521 12.0799 13.0279 10.5291 14.5683C8.97833 16.1087 8.0893 18.1924 8.05071 20.3772C8.01212 22.562 8.82699 24.6757 10.3224 26.2699L32.1375 48.0913L8.49932 71.7141C6.99072 73.3045 6.16286 75.4206 6.19216 77.6119C6.22146 79.8031 7.10564 81.8964 8.65623 83.4459C10.2068 84.9955 12.3015 85.879 14.4942 85.9083C16.6868 85.9375 18.8043 85.1103 20.3957 83.6027L44.0339 59.9285L68.4549 84.3335C69.2353 85.1148 70.1622 85.7348 71.1825 86.1581C72.2027 86.5815 73.2962 86.7999 74.4009 86.8008C75.5056 86.8018 76.5997 86.5853 77.6206 86.1637C78.6416 85.7421 79.5695 85.1237 80.3513 84.3438C81.1331 83.5638 81.7535 82.6377 82.1771 81.6181C82.6008 80.5986 82.8192 79.5056 82.8201 78.4016C82.8211 77.2977 82.6045 76.2043 82.1827 75.184C81.7608 74.1637 81.142 73.2365 80.3616 72.4552L55.9303 48.0913Z" fill="url(#paint27_radial_290_6)"/>
<path d="M55.272 47.9989L79.7652 23.5218C80.5159 22.771 81.1114 21.8797 81.5174 20.8989C81.9234 19.9181 82.1322 18.8669 82.1317 17.8055C82.1312 16.7441 81.9215 15.6931 81.5146 14.7127C81.1077 13.7322 80.5115 12.8415 79.7601 12.0913C79.0088 11.3411 78.1168 10.7462 77.1354 10.3404C76.1539 9.93467 75.1023 9.72609 74.0401 9.72656C72.978 9.72704 71.9262 9.93655 70.9452 10.3432C69.9641 10.7498 69.0728 11.3456 68.3222 12.0965L43.8393 36.5632L21.9727 14.7109C20.4394 13.2739 18.4066 12.4892 16.3048 12.5229C14.2029 12.5566 12.1967 13.406 10.7102 14.8915C9.22379 16.377 8.37368 18.382 8.33996 20.4825C8.30625 22.583 9.09143 24.6142 10.5294 26.1466L32.3961 47.9989L8.6138 71.7658C7.84222 72.5113 7.22675 73.4029 6.80353 74.3885C6.38031 75.3742 6.15777 76.4342 6.14872 77.5067C6.13968 78.5792 6.34444 79.6428 6.75098 80.6354C7.15751 81.628 7.75758 82.5299 8.51649 83.2883C9.2754 84.0467 10.1779 84.6465 11.1712 85.0528C12.1645 85.459 13.2287 85.6637 14.3019 85.6546C15.3751 85.6456 16.4357 85.4231 17.422 85.0001C18.4083 84.5772 19.3005 83.9622 20.0465 83.1912L43.8393 59.4243L68.4353 84.0147C69.1775 84.8056 70.0712 85.4393 71.0633 85.8782C72.0555 86.3171 73.1258 86.5523 74.2106 86.5697C75.2955 86.5871 76.3728 86.3863 77.3786 85.9794C78.3843 85.5725 79.298 84.9678 80.0652 84.2011C80.8324 83.4343 81.4374 82.5214 81.8445 81.5163C82.2517 80.5113 82.4526 79.4347 82.4352 78.3505C82.4178 77.2664 82.1826 76.1968 81.7434 75.2053C81.3042 74.2138 80.67 73.3207 79.8786 72.5789L55.272 47.9989Z" fill="url(#paint28_radial_290_6)"/>
<path d="M54.6124 47.9467L79.3321 23.3049C80.0821 22.591 80.6817 21.7345 81.0956 20.7855C81.5094 19.8366 81.7289 18.8146 81.7416 17.7795C81.7542 16.7445 81.5595 15.7173 81.169 14.7586C80.7784 13.7999 80.2 12.929 79.4676 12.197C78.7352 11.4651 77.8635 10.887 76.9042 10.4967C75.9448 10.1064 74.9171 9.91178 73.8814 9.9244C72.8456 9.93703 71.8229 10.1566 70.8734 10.5702C69.9238 10.9837 69.0668 11.5829 68.3525 12.3325L43.6944 36.9742L21.6527 15.0396C20.9311 14.3184 20.0744 13.7464 19.1316 13.3561C18.1888 12.9658 17.1783 12.7649 16.1578 12.7649C15.1373 12.7649 14.1268 12.9658 13.184 13.3561C12.2412 13.7464 11.3845 14.3184 10.6629 15.0396C9.94125 15.7607 9.36885 16.6168 8.97832 17.559C8.58779 18.5012 8.38663 19.5111 8.38663 20.5309C8.38663 21.5508 8.58779 22.5607 8.97832 23.5029C9.36885 24.4451 9.94125 25.3012 10.6629 26.0223L32.6117 47.9467L8.6748 71.868C7.21881 73.3244 6.40138 75.2992 6.40234 77.3579C6.40331 79.4166 7.22273 81.3906 8.68009 82.8456C10.1374 84.3007 12.1135 85.1176 14.1735 85.1166C16.2336 85.1156 18.2089 84.2969 19.6649 82.8405L43.6018 58.9295L68.3834 83.6948C69.8408 85.1499 71.8168 85.9667 73.8768 85.9657C75.9369 85.9648 77.912 85.1461 79.368 83.6897C80.824 82.2333 81.6414 80.2585 81.6405 78.1998C81.6395 76.1411 80.8203 74.167 79.363 72.712L54.6124 47.9467Z" fill="url(#paint29_radial_290_6)"/>
<path d="M53.9728 47.9054L78.8059 23.0887C80.2018 21.6923 80.9855 19.799 80.9846 17.8252C80.9836 15.8514 80.1982 13.9589 78.8009 12.5639C77.4036 11.1689 75.5091 10.3858 73.534 10.3867C71.559 10.3877 69.6651 11.1727 68.2692 12.569L43.4361 37.3858L21.415 15.3688C20.0178 13.9738 18.1232 13.1907 16.1482 13.1916C14.1731 13.1926 12.2792 13.9776 10.8833 15.374C9.48741 16.7703 8.70393 18.6636 8.7049 20.6374C8.70586 22.6112 9.49133 24.5037 10.8886 25.8987L32.9096 47.9054L8.82862 71.9708C8.1024 72.6535 7.52072 73.4751 7.11817 74.3866C6.71562 75.2982 6.50046 76.2813 6.48524 77.2776C6.47002 78.2739 6.65514 79.2631 7.02966 80.1865C7.40417 81.11 7.96039 81.9489 8.66542 82.6535C9.37045 83.358 10.21 83.9139 11.134 84.2882C12.0581 84.6625 13.0477 84.8475 14.0447 84.8323C15.0416 84.8171 16.0253 84.602 16.9375 84.1997C17.8497 83.7974 18.6719 83.2161 19.3551 82.4904L43.4361 58.3838L68.4029 83.3344C69.8002 84.7294 71.6947 85.5126 73.6698 85.5116C75.6449 85.5106 77.5388 84.7256 78.9347 83.3293C80.3306 81.9329 81.1143 80.0396 81.1133 78.0658C81.1124 76.0921 80.3269 74.1995 78.9296 72.8045L53.9728 47.9054Z" fill="url(#paint30_radial_290_6)"/>
<path d="M53.314 47.8647L78.3015 22.8729C79.0026 22.221 79.5651 21.4346 79.9554 20.5607C80.3456 19.6868 80.5557 18.7432 80.573 17.7864C80.5902 16.8295 80.4142 15.879 80.0557 14.9916C79.6972 14.1042 79.1635 13.2981 78.4863 12.6214C77.8092 11.9447 77.0025 11.4113 76.1145 11.053C75.2265 10.6948 74.2755 10.5191 73.318 10.5363C72.3606 10.5536 71.4164 10.7634 70.5419 11.1534C69.6674 11.5434 68.8805 12.1055 68.2282 12.8062L43.2819 37.7979L21.1784 15.7088C20.5261 15.0082 19.7392 14.4461 18.8647 14.0561C17.9902 13.6661 17.0461 13.4562 16.0886 13.439C15.1311 13.4217 14.1801 13.5975 13.2921 13.9557C12.4041 14.314 11.5974 14.8474 10.9203 15.5241C10.2432 16.2008 9.70941 17.0069 9.35094 17.8943C8.99246 18.7817 8.81642 19.7322 8.83368 20.689C8.85094 21.6459 9.06102 22.5894 9.45127 23.4634C9.84152 24.3373 10.404 25.1237 11.1051 25.7756L33.2086 47.8749L8.9833 72.0844C8.28219 72.7363 7.71968 73.5227 7.32943 74.3966C6.93919 75.2705 6.72936 76.2141 6.7121 77.1709C6.69484 78.1277 6.87062 79.0782 7.2291 79.9656C7.58758 80.8531 8.12133 81.6592 8.79847 82.3359C9.47562 83.0126 10.2823 83.546 11.1703 83.9042C12.0583 84.2625 13.0093 84.4382 13.9668 84.421C14.9242 84.4037 15.8684 84.1938 16.7429 83.8038C17.6174 83.4138 18.4043 82.8518 19.0566 82.1511L43.2819 57.9313L68.4238 83.0466C69.0761 83.7473 69.863 84.3093 70.7375 84.6993C71.612 85.0893 72.5562 85.2992 73.5137 85.3165C74.4711 85.3337 75.4224 85.158 76.3104 84.7997C77.1984 84.4415 78.0051 83.9081 78.6822 83.2314C79.3594 82.5547 79.8931 81.7486 80.2516 80.8611C80.6101 79.9737 80.7859 79.0232 80.7686 78.0664C80.7513 77.1096 80.5413 76.166 80.151 75.2921C79.7608 74.4181 79.1982 73.6318 78.4971 72.9799L53.314 47.8647Z" fill="url(#paint31_radial_290_6)"/>
<defs>
<radialGradient id="paint0_radial_290_6" cx="0" cy="0" r="1" gradientUnits="userSpaceOnUse" gradientTransform="translate(5.59508 0.134924) scale(141.253 141.16)">
<stop stop-color="#A8E6E3"/>
<stop offset="0.09" stop-color="#9EE3E0"/>
<stop offset="0.26" stop-color="#82DBD7"/>
<stop offset="0.35" stop-color="#6ED6D1"/>
<stop offset="0.56" stop-color="#68CCC7"/>
<stop offset="0.92" stop-color="#59B0AB"/>
<stop offset="1" stop-color="#55A9A3"/>
</radialGradient>
<radialGradient id="paint1_radial_290_6" cx="0" cy="0" r="1" gradientUnits="userSpaceOnUse" gradientTransform="translate(6.34613 1.31893) scale(139.913 139.822)">
<stop stop-color="#A7E6E3"/>
<stop offset="0.1" stop-color="#9CE3E0"/>
<stop offset="0.27" stop-color="#7FDBD6"/>
<stop offset="0.35" stop-color="#6FD6D1"/>
<stop offset="0.56" stop-color="#69CCC7"/>
<stop offset="0.93" stop-color="#5AB0AB"/>
<stop offset="1" stop-color="#56AAA4"/>
</radialGradient>
<radialGradient id="paint2_radial_290_6" cx="0" cy="0" r="1" gradientUnits="userSpaceOnUse" gradientTransform="translate(7.07716 2.48191) scale(138.564 138.474)">
<stop stop-color="#A7E6E2"/>
<stop offset="0.1" stop-color="#9CE3DF"/>
<stop offset="0.28" stop-color="#7EDBD5"/>
<stop offset="0.35" stop-color="#70D7D1"/>
<stop offset="0.57" stop-color="#6ACDC7"/>
<stop offset="0.95" stop-color="#5AB1AB"/>
<stop offset="1" stop-color="#57ACA6"/>
</radialGradient>
<radialGradient id="paint3_radial_290_6" cx="0" cy="0" r="1" gradientUnits="userSpaceOnUse" gradientTransform="translate(7.80881 3.64539) scale(137.205 137.115)">
<stop stop-color="#A6E6E2"/>
<stop offset="0.11" stop-color="#9AE3DE"/>
<stop offset="0.29" stop-color="#7CDAD4"/>
<stop offset="0.35" stop-color="#71D7D1"/>
<stop offset="0.57" stop-color="#6BCDC7"/>
<stop offset="0.96" stop-color="#59B1AB"/>
<stop offset="1" stop-color="#57ADA7"/>
</radialGradient>
<radialGradient id="paint4_radial_290_6" cx="0" cy="0" r="1" gradientUnits="userSpaceOnUse" gradientTransform="translate(8.53125 4.77743) scale(135.845 135.756)">
<stop stop-color="#A6E5E1"/>
<stop offset="0.11" stop-color="#9AE2DD"/>
<stop offset="0.3" stop-color="#7AD9D4"/>
<stop offset="0.35" stop-color="#71D7D1"/>
<stop offset="0.58" stop-color="#6ACDC7"/>
<stop offset="0.98" stop-color="#59B1AB"/>
<stop offset="1" stop-color="#58AFA9"/>
</radialGradient>
<radialGradient id="paint5_radial_290_6" cx="0" cy="0" r="1" gradientUnits="userSpaceOnUse" gradientTransform="translate(9.24178 5.90992) scale(134.475 134.387)">
<stop stop-color="#A5E5E1"/>
<stop offset="0.11" stop-color="#98E2DD"/>
<stop offset="0.32" stop-color="#77D8D3"/>
<stop offset="0.35" stop-color="#72D7D1"/>
<stop offset="0.59" stop-color="#6BCDC7"/>
<stop offset="0.99" stop-color="#59B1AB"/>
<stop offset="1" stop-color="#59B0AA"/>
</radialGradient>
<radialGradient id="paint6_radial_290_6" cx="0" cy="0" r="1" gradientUnits="userSpaceOnUse" gradientTransform="translate(9.94127 7.0316) scale(133.095 133.008)">
<stop stop-color="#A5E5E0"/>
<stop offset="0.12" stop-color="#98E2DC"/>
<stop offset="0.34" stop-color="#75D9D2"/>
<stop offset="0.35" stop-color="#73D8D1"/>
<stop offset="0.59" stop-color="#6CCEC7"/>
<stop offset="1" stop-color="#5AB2AC"/>
</radialGradient>
<radialGradient id="paint7_radial_290_6" cx="0" cy="0" r="1" gradientUnits="userSpaceOnUse" gradientTransform="translate(10.6309 8.13296) scale(131.705 131.618)">
<stop stop-color="#A4E5E0"/>
<stop offset="0.13" stop-color="#96E1DC"/>
<stop offset="0.35" stop-color="#74D8D1"/>
<stop offset="0.6" stop-color="#6DCEC7"/>
<stop offset="1" stop-color="#5BB3AD"/>
</radialGradient>
<radialGradient id="paint8_radial_290_6" cx="0" cy="0" r="1" gradientUnits="userSpaceOnUse" gradientTransform="translate(11.3116 9.22443) scale(130.314 130.229)">
<stop stop-color="#A4E5DF"/>
<stop offset="0.13" stop-color="#96E1DB"/>
<stop offset="0.35" stop-color="#75D8D2"/>
<stop offset="0.61" stop-color="#6DCEC8"/>
<stop offset="1" stop-color="#5BB5AF"/>
</radialGradient>
<radialGradient id="paint9_radial_290_6" cx="0" cy="0" r="1" gradientUnits="userSpaceOnUse" gradientTransform="translate(11.9917 10.2947) scale(128.913 128.829)">
<stop stop-color="#A3E5DF"/>
<stop offset="0.14" stop-color="#94E1DB"/>
<stop offset="0.35" stop-color="#76D8D2"/>
<stop offset="0.61" stop-color="#6ECEC8"/>
<stop offset="1" stop-color="#5CB6B0"/>
</radialGradient>
<radialGradient id="paint10_radial_290_6" cx="0" cy="0" r="1" gradientUnits="userSpaceOnUse" gradientTransform="translate(12.6507 11.365) scale(127.502 127.419)">
<stop stop-color="#A3E5DE"/>
<stop offset="0.15" stop-color="#93E1DA"/>
<stop offset="0.35" stop-color="#77D9D2"/>
<stop offset="0.62" stop-color="#6FCFC8"/>
<stop offset="1" stop-color="#5DB8B2"/>
</radialGradient>
<radialGradient id="paint11_radial_290_6" cx="0" cy="0" r="1" gradientUnits="userSpaceOnUse" gradientTransform="translate(13.3106 12.4153) scale(126.091 126.009)">
<stop stop-color="#A2E5DE"/>
<stop offset="0.16" stop-color="#92E0D9"/>
<stop offset="0.35" stop-color="#78D9D2"/>
<stop offset="0.62" stop-color="#70CFC8"/>
<stop offset="1" stop-color="#5EB9B3"/>
</radialGradient>
<radialGradient id="paint12_radial_290_6" cx="0" cy="0" r="1" gradientUnits="userSpaceOnUse" gradientTransform="translate(13.949 13.4438) scale(124.68 124.599)">
<stop stop-color="#A2E4DD"/>
<stop offset="0.16" stop-color="#91DFD8"/>
<stop offset="0.35" stop-color="#78D9D2"/>
<stop offset="0.63" stop-color="#70CFC8"/>
<stop offset="1" stop-color="#5FBAB5"/>
</radialGradient>
<radialGradient id="paint13_radial_290_6" cx="0" cy="0" r="1" gradientUnits="userSpaceOnUse" gradientTransform="translate(14.5864 14.4734) scale(123.259 123.178)">
<stop stop-color="#A1E4DD"/>
<stop offset="0.18" stop-color="#8FDFD8"/>
<stop offset="0.35" stop-color="#79D9D2"/>
<stop offset="0.65" stop-color="#70CFC8"/>
<stop offset="1" stop-color="#5FBCB6"/>
</radialGradient>
<radialGradient id="paint14_radial_290_6" cx="0" cy="0" r="1" gradientUnits="userSpaceOnUse" gradientTransform="translate(15.2155 15.4826) scale(121.827 121.747)">
<stop stop-color="#A1E4DC"/>
<stop offset="0.19" stop-color="#8EDFD7"/>
<stop offset="0.35" stop-color="#7ADAD2"/>
<stop offset="0.65" stop-color="#71D0C9"/>
<stop offset="1" stop-color="#60BDB8"/>
</radialGradient>
<radialGradient id="paint15_radial_290_6" cx="0" cy="0" r="1" gradientUnits="userSpaceOnUse" gradientTransform="translate(15.8334 16.4809) scale(120.395 120.317)">
<stop stop-color="#A0E4DC"/>
<stop offset="0.21" stop-color="#8BDED6"/>
<stop offset="0.35" stop-color="#7BDAD2"/>
<stop offset="0.66" stop-color="#71D0C8"/>
<stop offset="1" stop-color="#61BFB9"/>
</radialGradient>
<radialGradient id="paint16_radial_290_6" cx="0" cy="0" r="1" gradientUnits="userSpaceOnUse" gradientTransform="translate(16.4403 17.4688) scale(118.953 118.876)">
<stop stop-color="#A0E4DB"/>
<stop offset="0.23" stop-color="#8ADED5"/>
<stop offset="0.35" stop-color="#7CDAD2"/>
<stop offset="0.67" stop-color="#72D0C9"/>
<stop offset="1" stop-color="#62C0BB"/>
</radialGradient>
<radialGradient id="paint17_radial_290_6" cx="0" cy="0" r="1" gradientUnits="userSpaceOnUse" gradientTransform="translate(17.0378 18.4368) scale(117.511 117.434)">
<stop stop-color="#9FE4DB"/>
<stop offset="0.25" stop-color="#87DDD5"/>
<stop offset="0.35" stop-color="#7DDAD2"/>
<stop offset="0.67" stop-color="#73D0C9"/>
<stop offset="1" stop-color="#63C2BC"/>
</radialGradient>
<radialGradient id="paint18_radial_290_6" cx="0" cy="0" r="1" gradientUnits="userSpaceOnUse" gradientTransform="translate(17.6255 19.404) scale(116.069 115.993)">
<stop stop-color="#9FE4DA"/>
<stop offset="0.28" stop-color="#85DDD4"/>
<stop offset="0.35" stop-color="#7EDBD2"/>
<stop offset="0.67" stop-color="#74D1CA"/>
<stop offset="1" stop-color="#64C3BE"/>
</radialGradient>
<radialGradient id="paint19_radial_290_6" cx="0" cy="0" r="1" gradientUnits="userSpaceOnUse" gradientTransform="translate(18.2017 20.3408) scale(114.617 114.542)">
<stop stop-color="#9EE4DA"/>
<stop offset="0.32" stop-color="#82DCD3"/>
<stop offset="0.35" stop-color="#7FDBD2"/>
<stop offset="0.66" stop-color="#75D2CB"/>
<stop offset="1" stop-color="#64C5BF"/>
</radialGradient>
<radialGradient id="paint20_radial_290_6" cx="0" cy="0" r="1" gradientUnits="userSpaceOnUse" gradientTransform="translate(18.7789 21.2777) scale(113.165 113.091)">
<stop stop-color="#9EE3D9"/>
<stop offset="0.34" stop-color="#80DBD2"/>
<stop offset="0.35" stop-color="#7FDBD2"/>
<stop offset="0.67" stop-color="#75D3CB"/>
<stop offset="1" stop-color="#65C6C1"/>
</radialGradient>
<radialGradient id="paint21_radial_290_6" cx="0" cy="0" r="1" gradientUnits="userSpaceOnUse" gradientTransform="translate(19.3343 22.1936) scale(111.712 111.639)">
<stop stop-color="#9DE3D9"/>
<stop offset="0.35" stop-color="#80DBD2"/>
<stop offset="0.67" stop-color="#76D3CC"/>
<stop offset="1" stop-color="#66C7C2"/>
</radialGradient>
<radialGradient id="paint22_radial_290_6" cx="0" cy="0" r="1" gradientUnits="userSpaceOnUse" gradientTransform="translate(19.8909 23.0994) scale(110.25 110.178)">
<stop stop-color="#9DE3D8"/>
<stop offset="0.35" stop-color="#81DCD2"/>
<stop offset="0.67" stop-color="#77D4CC"/>
<stop offset="1" stop-color="#67C9C4"/>
</radialGradient>
<radialGradient id="paint23_radial_290_6" cx="0" cy="0" r="1" gradientUnits="userSpaceOnUse" gradientTransform="translate(20.4365 23.9946) scale(108.787 108.716)">
<stop stop-color="#9CE3D8"/>
<stop offset="0.35" stop-color="#82DCD2"/>
<stop offset="0.67" stop-color="#78D5CD"/>
<stop offset="1" stop-color="#68CAC5"/>
</radialGradient>
<radialGradient id="paint24_radial_290_6" cx="0" cy="0" r="1" gradientUnits="userSpaceOnUse" gradientTransform="translate(20.9616 24.8802) scale(107.324 107.255)">
<stop stop-color="#9CE3D7"/>
<stop offset="0.35" stop-color="#83DCD3"/>
<stop offset="0.66" stop-color="#79D6CE"/>
<stop offset="1" stop-color="#68CCC7"/>
</radialGradient>
<radialGradient id="paint25_radial_290_6" cx="0" cy="0" r="1" gradientUnits="userSpaceOnUse" gradientTransform="translate(21.4881 25.7447) scale(105.862 105.793)">
<stop stop-color="#9BE3D7"/>
<stop offset="0.35" stop-color="#84DCD3"/>
<stop offset="0.66" stop-color="#7AD6CF"/>
<stop offset="1" stop-color="#69CDC8"/>
</radialGradient>
<radialGradient id="paint26_radial_290_6" cx="0" cy="0" r="1" gradientUnits="userSpaceOnUse" gradientTransform="translate(22.0024 26.5991) scale(104.4 104.331)">
<stop stop-color="#9BE3D6"/>
<stop offset="0.35" stop-color="#85DDD3"/>
<stop offset="0.66" stop-color="#7BD8D0"/>
<stop offset="1" stop-color="#6ACFCA"/>
</radialGradient>
<radialGradient id="paint27_radial_290_6" cx="0" cy="0" r="1" gradientUnits="userSpaceOnUse" gradientTransform="translate(22.5071 27.4433) scale(102.927 102.859)">
<stop stop-color="#9AE3D6"/>
<stop offset="0.35" stop-color="#86DDD3"/>
<stop offset="0.66" stop-color="#7CD8D0"/>
<stop offset="1" stop-color="#6BD0CB"/>
</radialGradient>
<radialGradient id="paint28_radial_290_6" cx="0" cy="0" r="1" gradientUnits="userSpaceOnUse" gradientTransform="translate(23.013 28.267) scale(101.464 101.398)">
<stop stop-color="#9AE2D5"/>
<stop offset="0.35" stop-color="#86DDD3"/>
<stop offset="0.67" stop-color="#7CD9D1"/>
<stop offset="1" stop-color="#6CD2CD"/>
</radialGradient>
<radialGradient id="paint29_radial_290_6" cx="0" cy="0" r="1" gradientUnits="userSpaceOnUse" gradientTransform="translate(23.4963 29.0794) scale(99.9912 99.9258)">
<stop stop-color="#99E2D5"/>
<stop offset="0.35" stop-color="#87DDD3"/>
<stop offset="0.66" stop-color="#7DD9D1"/>
<stop offset="1" stop-color="#6CD3CE"/>
</radialGradient>
<radialGradient id="paint30_radial_290_6" cx="0" cy="0" r="1" gradientUnits="userSpaceOnUse" gradientTransform="translate(23.9695 29.8821) scale(98.5286 98.4642)">
<stop stop-color="#99E2D4"/>
<stop offset="0.35" stop-color="#88DED3"/>
<stop offset="0.66" stop-color="#7EDBD2"/>
<stop offset="1" stop-color="#6DD5D0"/>
</radialGradient>
<radialGradient id="paint31_radial_290_6" cx="0" cy="0" r="1" gradientUnits="userSpaceOnUse" gradientTransform="translate(24.4436 30.6751) scale(97.0556 96.9923)">
<stop stop-color="#98E2D4"/>
<stop offset="1" stop-color="#6ED6D1"/>
</radialGradient>
</defs>
</svg>
