<svg width="32" height="32" viewBox="0 0 32 32" fill="none" xmlns="http://www.w3.org/2000/svg">
<path d="M31.2755 14.8098L1.97705 0.140838C1.74742 0.0258422 1.48948 -0.0202342 1.2343 0.00815715C0.979126 0.0365485 0.737584 0.138197 0.538761 0.300863C0.348887 0.460212 0.207165 0.669437 0.129528 0.905017C0.0518913 1.1406 0.0414177 1.39319 0.0992849 1.63441L3.62841 14.6631H18.6905V17.3302H3.62841L0.0460151 30.3189C-0.00828495 30.5204 -0.0146234 30.7318 0.0275095 30.9361C0.0696424 31.1404 0.159071 31.332 0.288605 31.4955C0.418138 31.6589 0.584162 31.7896 0.773327 31.8771C0.962491 31.9646 1.16952 32.0064 1.37776 31.9992C1.58624 31.998 1.79151 31.9477 1.97705 31.8525L31.2755 17.1835C31.4936 17.0716 31.6767 16.9016 31.8045 16.6922C31.9324 16.4828 32 16.2421 32 15.9967C32 15.7512 31.9324 15.5106 31.8045 15.3012C31.6767 15.0918 31.4936 14.9217 31.2755 14.8098Z" fill="black"/>
</svg>
