<svg width="65" height="68" viewBox="0 0 65 68" fill="none" xmlns="http://www.w3.org/2000/svg">
<g clip-path="url(#clip0_214_1115)">
<path d="M32.4724 5.35646C17.63 5.37097 5.46446 17.4156 5.38279 32.1834C5.3418 37.8069 7.07628 43.3012 10.3416 47.8915C10.5613 48.2024 10.7115 48.5564 10.7821 48.9299C10.8527 49.3033 10.8421 49.6875 10.7509 50.0565L8.4728 59.3258C7.94775 61.4637 10.0936 63.2833 12.1326 62.4291L22.3953 58.1263C22.9904 57.8784 23.655 57.8506 24.269 58.0479C27.0972 58.9404 30.0533 59.3652 33.0198 59.3055C47.7357 59.0298 59.6261 46.9551 59.6154 32.3111C59.6057 17.4147 47.4547 5.34098 32.4724 5.35646Z" fill="#7FD970"/>
<path d="M32.4996 0H32.4665C14.6645 0.0174126 0.0992215 14.4418 4.57318e-05 32.1523C-0.0504604 38.4651 1.77149 44.6525 5.23789 49.9403L3.24368 58.0555C2.94922 59.2355 2.92992 60.4669 3.18726 61.6555C3.44459 62.8441 3.97175 63.9584 4.7284 64.9131C5.81872 66.305 7.34044 67.2998 9.05727 67.7431C10.7741 68.1863 12.59 68.0532 14.223 67.3644L23.5903 63.4369C26.4883 64.2566 29.4867 64.6714 32.4996 64.6694C32.7076 64.6694 32.9138 64.6694 33.1218 64.6636C41.6587 64.503 49.6716 61.0543 55.6863 54.9493C61.701 48.8442 65.0049 40.8054 65 32.3129C64.9874 14.495 50.4076 0 32.4996 0ZM33.0217 59.3102C30.0553 59.3699 27.0991 58.9451 24.2709 58.0526C23.6572 57.8556 22.9929 57.8838 22.3982 58.1319L12.1325 62.4309C10.0907 63.286 7.95161 61.4635 8.47277 59.3285L10.7509 50.0563C10.8429 49.6874 10.8542 49.3031 10.7841 48.9294C10.714 48.5558 10.5641 48.2015 10.3445 47.8904C7.07957 43.2996 5.34514 37.805 5.38568 32.1814C5.46833 17.4155 17.6368 5.36985 32.4753 5.35534C47.4566 5.34083 59.6095 17.4155 59.6202 32.3139C59.628 46.9588 47.7376 59.0335 33.0217 59.3102Z" fill="#7FD970"/>
<path d="M32.4996 0H32.4665C14.6645 0.0174126 0.0992215 14.4418 4.57318e-05 32.1523C-0.0504604 38.4651 1.77149 44.6525 5.23789 49.9403L3.24368 58.0555C2.94922 59.2355 2.92992 60.4669 3.18726 61.6555C3.44459 62.8441 3.97175 63.9584 4.7284 64.9131C5.81872 66.305 7.34044 67.2998 9.05727 67.7431C10.7741 68.1863 12.59 68.0532 14.223 67.3644L23.5903 63.4369C26.4883 64.2566 29.4867 64.6714 32.4996 64.6694C32.7076 64.6694 32.9138 64.6694 33.1218 64.6636C41.6587 64.503 49.6716 61.0543 55.6863 54.9493C61.701 48.8442 65.0049 40.8054 65 32.3129C64.9874 14.495 50.4076 0 32.4996 0ZM33.0217 59.3102C30.0553 59.3699 27.0991 58.9451 24.2709 58.0526C23.6572 57.8556 22.9929 57.8838 22.3982 58.1319L12.1325 62.4309C10.0907 63.286 7.95161 61.4635 8.47277 59.3285L10.7509 50.0563C10.8429 49.6874 10.8542 49.3031 10.7841 48.9294C10.714 48.5558 10.5641 48.2015 10.3445 47.8904C7.07957 43.2996 5.34514 37.805 5.38568 32.1814C5.46833 17.4155 17.6368 5.36985 32.4753 5.35534C47.4566 5.34083 59.6095 17.4155 59.6202 32.3139C59.628 46.9588 47.7376 59.0335 33.0217 59.3102Z" fill="#7FD970"/>
<path d="M46.5885 22.0915C46.3387 21.8429 46.042 21.6456 45.7155 21.511C45.389 21.3764 45.0391 21.3071 44.6857 21.3071C44.3323 21.3071 43.9823 21.3764 43.6558 21.511C43.3294 21.6456 43.0327 21.8429 42.7829 22.0915L27.9065 36.8922L22.2204 31.236C21.7129 30.7477 21.0329 30.4773 20.3269 30.4831C19.6209 30.489 18.9455 30.7706 18.4462 31.2673C17.947 31.764 17.6639 32.436 17.6581 33.1384C17.6522 33.8408 17.924 34.5174 18.4148 35.0223L26.0037 42.5678C26.2536 42.8165 26.5503 43.0138 26.8769 43.1484C27.2035 43.283 27.5535 43.3523 27.907 43.3523C28.2605 43.3523 28.6105 43.283 28.9371 43.1484C29.2637 43.0138 29.5604 42.8165 29.8103 42.5678L46.5924 25.8701C47.0943 25.3679 47.3757 24.6882 47.375 23.98C47.3743 23.2718 47.0915 22.5927 46.5885 22.0915Z" fill="white"/>
<path d="M46.5885 22.0915C46.3387 21.8429 46.042 21.6456 45.7155 21.511C45.389 21.3764 45.0391 21.3071 44.6857 21.3071C44.3323 21.3071 43.9823 21.3764 43.6558 21.511C43.3294 21.6456 43.0327 21.8429 42.7829 22.0915L27.9065 36.8922L22.2204 31.236C21.7129 30.7477 21.0329 30.4773 20.3269 30.4831C19.6209 30.489 18.9455 30.7706 18.4462 31.2673C17.947 31.764 17.6639 32.436 17.6581 33.1384C17.6522 33.8408 17.924 34.5174 18.4148 35.0223L26.0037 42.5678C26.2536 42.8165 26.5503 43.0138 26.8769 43.1484C27.2035 43.283 27.5535 43.3523 27.907 43.3523C28.2605 43.3523 28.6105 43.283 28.9371 43.1484C29.2637 43.0138 29.5604 42.8165 29.8103 42.5678L46.5924 25.8701C47.0943 25.3679 47.3757 24.6882 47.375 23.98C47.3743 23.2718 47.0915 22.5927 46.5885 22.0915Z" fill="white"/>
<path d="M48.4913 20.1986C47.4816 19.195 46.1128 18.6313 44.6856 18.6313C43.2585 18.6313 41.8897 19.195 40.88 20.1986L27.9026 33.111L24.1203 29.3469C23.1108 28.3425 21.7417 27.7782 20.314 27.7781C18.8864 27.778 17.5171 28.3421 16.5076 29.3465C15.498 30.3508 14.9308 31.713 14.9307 33.1334C14.9306 34.5538 15.4976 35.916 16.5071 36.9204L24.0969 44.4717C25.1071 45.4751 26.4761 46.0387 27.9035 46.0387C29.3309 46.0387 30.7 45.4751 31.7101 44.4717L48.4913 27.773C48.9912 27.2757 49.3878 26.6853 49.6584 26.0355C49.929 25.3857 50.0683 24.6892 50.0683 23.9858C50.0683 23.2824 49.929 22.5859 49.6584 21.9361C49.3878 21.2863 48.9912 20.6959 48.4913 20.1986ZM46.5894 25.8789L29.8083 42.5766C29.3035 43.0784 28.6191 43.3602 27.9055 43.3602C27.1919 43.3602 26.5075 43.0784 26.0027 42.5766L18.4128 35.0312C17.9219 34.5263 17.6502 33.8497 17.656 33.1473C17.6619 32.4449 17.945 31.7729 18.4442 31.2762C18.9435 30.7795 19.6189 30.4979 20.3249 30.492C21.0309 30.4862 21.7109 30.7566 22.2184 31.2449L27.9026 36.8924L42.7789 22.0917C43.0288 21.843 43.3255 21.6456 43.652 21.511C43.9786 21.3763 44.3285 21.3069 44.682 21.3069C45.0355 21.3068 45.3855 21.3759 45.7121 21.5104C46.0387 21.6449 46.3355 21.8421 46.5855 22.0907C46.8355 22.3393 47.0339 22.6345 47.1692 22.9594C47.3046 23.2843 47.3743 23.6325 47.3744 23.9841C47.3745 24.3358 47.3049 24.6841 47.1698 25.009C47.0346 25.334 46.8364 25.6292 46.5865 25.878L46.5894 25.8789Z" fill="#7FD970"/>
</g>
<defs>
<clipPath id="clip0_214_1115">
<rect width="65" height="68" fill="white"/>
</clipPath>
</defs>
</svg>
