<svg width="179" height="68" viewBox="0 0 179 68" fill="none" xmlns="http://www.w3.org/2000/svg">
<g clip-path="url(#clip0_214_1058)">
<path d="M146.472 5.35646C131.63 5.37097 119.464 17.4156 119.383 32.1834C119.342 37.8069 121.076 43.3012 124.341 47.8915C124.561 48.2024 124.711 48.5564 124.782 48.9299C124.852 49.3033 124.842 49.6875 124.751 50.0565L122.473 59.3258C121.948 61.4637 124.093 63.2833 126.132 62.4291L136.395 58.1263C136.99 57.8784 137.655 57.8506 138.269 58.0479C141.097 58.9404 144.053 59.3652 147.02 59.3055C161.735 59.0298 173.626 46.9551 173.615 32.3111C173.605 17.4147 161.454 5.34098 146.472 5.35646Z" fill="#7FD970"/>
<path d="M146.5 0H146.467C128.664 0.0174126 114.099 14.4418 114 32.1523C113.95 38.4651 115.771 44.6525 119.238 49.9403L117.244 58.0555C116.949 59.2355 116.93 60.4669 117.187 61.6555C117.445 62.8441 117.972 63.9584 118.728 64.9131C119.819 66.305 121.34 67.2998 123.057 67.7431C124.774 68.1863 126.59 68.0532 128.223 67.3644L137.59 63.4369C140.488 64.2566 143.487 64.6714 146.5 64.6694C146.708 64.6694 146.914 64.6694 147.122 64.6636C155.659 64.503 163.672 61.0543 169.686 54.9493C175.701 48.8442 179.005 40.8054 179 32.3129C178.987 14.495 164.408 0 146.5 0ZM147.022 59.3102C144.055 59.3699 141.099 58.9451 138.271 58.0526C137.657 57.8556 136.993 57.8838 136.398 58.1319L126.133 62.4309C124.091 63.286 121.952 61.4635 122.473 59.3285L124.751 50.0563C124.843 49.6874 124.854 49.3031 124.784 48.9294C124.714 48.5558 124.564 48.2015 124.344 47.8904C121.08 43.2996 119.345 37.805 119.386 32.1814C119.468 17.4155 131.637 5.36985 146.475 5.35534C161.457 5.34083 173.61 17.4155 173.62 32.3139C173.628 46.9588 161.738 59.0335 147.022 59.3102Z" fill="#7FD970"/>
<path d="M146.5 0H146.467C128.664 0.0174126 114.099 14.4418 114 32.1523C113.95 38.4651 115.771 44.6525 119.238 49.9403L117.244 58.0555C116.949 59.2355 116.93 60.4669 117.187 61.6555C117.445 62.8441 117.972 63.9584 118.728 64.9131C119.819 66.305 121.34 67.2998 123.057 67.7431C124.774 68.1863 126.59 68.0532 128.223 67.3644L137.59 63.4369C140.488 64.2566 143.487 64.6714 146.5 64.6694C146.708 64.6694 146.914 64.6694 147.122 64.6636C155.659 64.503 163.672 61.0543 169.686 54.9493C175.701 48.8442 179.005 40.8054 179 32.3129C178.987 14.495 164.408 0 146.5 0ZM147.022 59.3102C144.055 59.3699 141.099 58.9451 138.271 58.0526C137.657 57.8556 136.993 57.8838 136.398 58.1319L126.133 62.4309C124.091 63.286 121.952 61.4635 122.473 59.3285L124.751 50.0563C124.843 49.6874 124.854 49.3031 124.784 48.9294C124.714 48.5558 124.564 48.2015 124.344 47.8904C121.08 43.2996 119.345 37.805 119.386 32.1814C119.468 17.4155 131.637 5.36985 146.475 5.35534C161.457 5.34083 173.61 17.4155 173.62 32.3139C173.628 46.9588 161.738 59.0335 147.022 59.3102Z" fill="#7FD970"/>
<path d="M160.589 22.0915C160.339 21.8429 160.042 21.6456 159.716 21.511C159.389 21.3764 159.039 21.3071 158.686 21.3071C158.333 21.3071 157.983 21.3764 157.656 21.511C157.33 21.6456 157.033 21.8429 156.783 22.0915L141.907 36.8922L136.221 31.236C135.713 30.7477 135.033 30.4773 134.327 30.4831C133.621 30.489 132.946 30.7706 132.446 31.2673C131.947 31.764 131.664 32.436 131.658 33.1384C131.652 33.8408 131.924 34.5174 132.415 35.0223L140.004 42.5678C140.254 42.8165 140.551 43.0138 140.877 43.1484C141.204 43.283 141.554 43.3523 141.907 43.3523C142.261 43.3523 142.611 43.283 142.937 43.1484C143.264 43.0138 143.561 42.8165 143.811 42.5678L160.593 25.8701C161.095 25.3679 161.376 24.6882 161.375 23.98C161.375 23.2718 161.092 22.5927 160.589 22.0915Z" fill="white"/>
<path d="M160.589 22.0915C160.339 21.8429 160.042 21.6456 159.716 21.511C159.389 21.3764 159.039 21.3071 158.686 21.3071C158.333 21.3071 157.983 21.3764 157.656 21.511C157.33 21.6456 157.033 21.8429 156.783 22.0915L141.907 36.8922L136.221 31.236C135.713 30.7477 135.033 30.4773 134.327 30.4831C133.621 30.489 132.946 30.7706 132.446 31.2673C131.947 31.764 131.664 32.436 131.658 33.1384C131.652 33.8408 131.924 34.5174 132.415 35.0223L140.004 42.5678C140.254 42.8165 140.551 43.0138 140.877 43.1484C141.204 43.283 141.554 43.3523 141.907 43.3523C142.261 43.3523 142.611 43.283 142.937 43.1484C143.264 43.0138 143.561 42.8165 143.811 42.5678L160.593 25.8701C161.095 25.3679 161.376 24.6882 161.375 23.98C161.375 23.2718 161.092 22.5927 160.589 22.0915Z" fill="white"/>
<path d="M162.491 20.1986C161.482 19.195 160.113 18.6313 158.686 18.6313C157.258 18.6313 155.89 19.195 154.88 20.1986L141.903 33.111L138.12 29.3469C137.111 28.3425 135.742 27.7782 134.314 27.7781C132.886 27.778 131.517 28.3421 130.508 29.3465C129.498 30.3508 128.931 31.713 128.931 33.1334C128.931 34.5538 129.498 35.916 130.507 36.9204L138.097 44.4717C139.107 45.4751 140.476 46.0387 141.904 46.0387C143.331 46.0387 144.7 45.4751 145.71 44.4717L162.491 27.773C162.991 27.2757 163.388 26.6853 163.658 26.0355C163.929 25.3857 164.068 24.6892 164.068 23.9858C164.068 23.2824 163.929 22.5859 163.658 21.9361C163.388 21.2863 162.991 20.6959 162.491 20.1986ZM160.589 25.8789L143.808 42.5766C143.303 43.0784 142.619 43.3602 141.905 43.3602C141.192 43.3602 140.507 43.0784 140.003 42.5766L132.413 35.0312C131.922 34.5263 131.65 33.8497 131.656 33.1473C131.662 32.4449 131.945 31.7729 132.444 31.2762C132.943 30.7795 133.619 30.4979 134.325 30.492C135.031 30.4862 135.711 30.7566 136.218 31.2449L141.903 36.8924L156.779 22.0917C157.029 21.843 157.325 21.6456 157.652 21.511C157.979 21.3763 158.329 21.3069 158.682 21.3069C159.035 21.3068 159.386 21.3759 159.712 21.5104C160.039 21.6449 160.336 21.8421 160.586 22.0907C160.836 22.3393 161.034 22.6345 161.169 22.9594C161.305 23.2843 161.374 23.6325 161.374 23.9841C161.374 24.3358 161.305 24.6841 161.17 25.009C161.035 25.334 160.836 25.6292 160.586 25.878L160.589 25.8789Z" fill="#7FD970"/>
</g>
<path d="M9.125 42.0909V26.7273H12.1818V42.0909H9.125ZM2.97727 35.9318V32.8864H18.3409V35.9318H2.97727ZM31.233 46.3182C29.8087 46.3182 28.5284 46.0455 27.392 45.5C26.2633 44.947 25.3617 44.1894 24.6875 43.2273C24.0133 42.2652 23.6534 41.1667 23.608 39.9318H27.017C27.1004 40.9318 27.5436 41.7538 28.3466 42.3977C29.1496 43.0417 30.1117 43.3636 31.233 43.3636C32.1269 43.3636 32.9186 43.1591 33.608 42.75C34.3049 42.3333 34.8504 41.7614 35.2443 41.0341C35.6458 40.3068 35.8466 39.4773 35.8466 38.5455C35.8466 37.5985 35.642 36.7538 35.233 36.0114C34.8239 35.2689 34.2595 34.6856 33.5398 34.2614C32.8277 33.8371 32.0095 33.6212 31.0852 33.6136C30.3807 33.6136 29.6723 33.7348 28.9602 33.9773C28.2481 34.2197 27.6723 34.5379 27.233 34.9318L24.017 34.4545L25.3239 22.7273H38.1193V25.7386H28.2443L27.5057 32.25H27.642C28.0966 31.8106 28.6989 31.4432 29.4489 31.1477C30.2064 30.8523 31.017 30.7045 31.8807 30.7045C33.2973 30.7045 34.5587 31.0417 35.6648 31.7159C36.7784 32.3902 37.6534 33.3106 38.2898 34.4773C38.9337 35.6364 39.2519 36.9697 39.2443 38.4773C39.2519 39.9848 38.911 41.3295 38.2216 42.5114C37.5398 43.6932 36.5928 44.625 35.3807 45.3068C34.1761 45.9811 32.7936 46.3182 31.233 46.3182ZM51.9091 52.5455V28.5455H55.2273V31.375H55.5114C55.7083 31.0114 55.9924 30.5909 56.3636 30.1136C56.7348 29.6364 57.25 29.2197 57.9091 28.8636C58.5682 28.5 59.4394 28.3182 60.5227 28.3182C61.9318 28.3182 63.1894 28.6742 64.2955 29.3864C65.4015 30.0985 66.2689 31.125 66.8977 32.4659C67.5341 33.8068 67.8523 35.4205 67.8523 37.3068C67.8523 39.1932 67.5379 40.8106 66.9091 42.1591C66.2803 43.5 65.4167 44.5341 64.3182 45.2614C63.2197 45.9811 61.9659 46.3409 60.5568 46.3409C59.4962 46.3409 58.6288 46.1629 57.9545 45.8068C57.2879 45.4508 56.7652 45.0341 56.3864 44.5568C56.0076 44.0795 55.7159 43.6553 55.5114 43.2841H55.3068V52.5455H51.9091ZM55.2386 37.2727C55.2386 38.5 55.4167 39.5758 55.7727 40.5C56.1288 41.4242 56.6439 42.1477 57.3182 42.6705C57.9924 43.1856 58.8182 43.4432 59.7955 43.4432C60.8106 43.4432 61.6591 43.1742 62.3409 42.6364C63.0227 42.0909 63.5379 41.3523 63.8864 40.4205C64.2424 39.4886 64.4205 38.4394 64.4205 37.2727C64.4205 36.1212 64.2462 35.0871 63.8977 34.1705C63.5568 33.2538 63.0417 32.5303 62.3523 32C61.6705 31.4697 60.8182 31.2045 59.7955 31.2045C58.8106 31.2045 57.9773 31.4583 57.2955 31.9659C56.6212 32.4735 56.1098 33.1818 55.7614 34.0909C55.4129 35 55.2386 36.0606 55.2386 37.2727ZM79.8068 28.5455V31.2727H70.2727V28.5455H79.8068ZM72.8295 24.3636H76.2273V40.875C76.2273 41.5341 76.3258 42.0303 76.5227 42.3636C76.7197 42.6894 76.9735 42.9129 77.2841 43.0341C77.6023 43.1477 77.947 43.2045 78.3182 43.2045C78.5909 43.2045 78.8295 43.1856 79.0341 43.1477C79.2386 43.1098 79.3977 43.0795 79.5114 43.0568L80.125 45.8636C79.928 45.9394 79.6477 46.0152 79.2841 46.0909C78.9205 46.1742 78.4659 46.2197 77.9205 46.2273C77.0265 46.2424 76.1932 46.0833 75.4205 45.75C74.6477 45.4167 74.0227 44.9015 73.5455 44.2045C73.0682 43.5076 72.8295 42.6326 72.8295 41.5795V24.3636ZM96.3636 32.8068L93.2841 33.3523C93.1553 32.9583 92.9508 32.5833 92.6705 32.2273C92.3977 31.8712 92.0265 31.5795 91.5568 31.3523C91.0871 31.125 90.5 31.0114 89.7955 31.0114C88.8333 31.0114 88.0303 31.2273 87.3864 31.6591C86.7424 32.0833 86.4205 32.6326 86.4205 33.3068C86.4205 33.8902 86.6364 34.3598 87.0682 34.7159C87.5 35.072 88.197 35.3636 89.1591 35.5909L91.9318 36.2273C93.5379 36.5985 94.7348 37.1705 95.5227 37.9432C96.3106 38.7159 96.7045 39.7197 96.7045 40.9545C96.7045 42 96.4015 42.9318 95.7955 43.75C95.197 44.5606 94.3598 45.197 93.2841 45.6591C92.2159 46.1212 90.9773 46.3523 89.5682 46.3523C87.6136 46.3523 86.0189 45.9356 84.7841 45.1023C83.5492 44.2614 82.7917 43.0682 82.5114 41.5227L85.7955 41.0227C86 41.8788 86.4205 42.5265 87.0568 42.9659C87.6932 43.3977 88.5227 43.6136 89.5455 43.6136C90.6591 43.6136 91.5492 43.3826 92.2159 42.9205C92.8826 42.4508 93.2159 41.8788 93.2159 41.2045C93.2159 40.6591 93.0114 40.2008 92.6023 39.8295C92.2008 39.4583 91.5833 39.178 90.75 38.9886L87.7955 38.3409C86.1667 37.9697 84.9621 37.3788 84.1818 36.5682C83.4091 35.7576 83.0227 34.7311 83.0227 33.4886C83.0227 32.4583 83.3106 31.5568 83.8864 30.7841C84.4621 30.0114 85.2576 29.4091 86.2727 28.9773C87.2879 28.5379 88.4508 28.3182 89.7614 28.3182C91.6477 28.3182 93.1326 28.7273 94.2159 29.5455C95.2992 30.3561 96.0152 31.4432 96.3636 32.8068Z" fill="#7FD970"/>
<defs>
<clipPath id="clip0_214_1058">
<rect width="65" height="68" fill="white" transform="translate(114)"/>
</clipPath>
</defs>
</svg>
