<svg width="324" height="105" viewBox="0 0 324 105" fill="none" xmlns="http://www.w3.org/2000/svg">
<g clip-path="url(#clip0_175_4778)">
<path d="M295.458 85.9058H304.972V57.282H295.458V85.9058Z" fill="#E500C2"/>
<path d="M295.423 76.3765H285.909V95.4705H295.423V76.3765Z" fill="#E500C2"/>
<path d="M247.748 95.2617H285.874V85.7321H247.748V95.2617Z" fill="#E500C2"/>
<path d="M28.577 9.52979H19.0629V19.0594H28.577V9.52979Z" fill="#EBEBEB"/>
<path d="M295.423 0H28.577V9.52964H295.423V0Z" fill="#EBEBEB"/>
<path d="M19.0628 95.4355H28.5769V85.9059H19.0628V95.4355Z" fill="#EBEBEB"/>
<path d="M9.54872 38.188H19.063L19.063 19.0939H9.54872L9.54872 38.188Z" fill="#EBEBEB"/>
<path d="M9.54872 85.9058H19.063L19.063 66.8117H9.54872L9.54872 85.9058Z" fill="#EBEBEB"/>
<path d="M295.423 95.4702H28.577V105H295.423V95.4702Z" fill="#EBEBEB"/>
<path d="M9.51409 38.188H0V66.8117H9.51409V38.188Z" fill="#EBEBEB"/>
<path d="M304.937 85.9058H295.423V95.4354H304.937V85.9058Z" fill="#EBEBEB"/>
<path d="M304.937 9.52979H295.423V19.0594H304.937V9.52979Z" fill="#EBEBEB"/>
<path d="M314.451 66.812H304.937V85.9061H314.451V66.812Z" fill="#EBEBEB"/>
<path d="M314.451 19.0942H304.937V38.1883H314.451V19.0942Z" fill="#EBEBEB"/>
<path d="M324 38.188H314.486V66.8117H324V38.188Z" fill="#EBEBEB"/>
<path d="M28.577 19.0942H19.0629V85.9061H28.577V19.0942Z" fill="#7C2DDB"/>
<path d="M304.937 19.0942H295.423V85.9061H304.937V19.0942Z" fill="#7C2DDB"/>
<path d="M38.0911 9.52979H28.577V95.4357H38.0911V9.52979Z" fill="#7C2DDB"/>
<path d="M47.64 9.52979H38.1259V95.4357H47.64V9.52979Z" fill="#7C2DDB"/>
<path d="M57.154 9.52979H47.6399V95.4357H57.154V9.52979Z" fill="#7C2DDB"/>
<path d="M66.7028 9.52979H57.1887V95.4357H66.7028V9.52979Z" fill="#7C2DDB"/>
<path d="M76.217 9.52979H66.7029V95.4357H76.217V9.52979Z" fill="#7C2DDB"/>
<path d="M85.7657 9.52979H76.2516V95.4357H85.7657V9.52979Z" fill="#7C2DDB"/>
<path d="M95.2798 9.52979H85.7657V95.4357H95.2798V9.52979Z" fill="#7C2DDB"/>
<path d="M104.829 9.52979H95.3146V95.4357H104.829V9.52979Z" fill="#7C2DDB"/>
<path d="M114.343 9.52979H104.829V95.4357H114.343V9.52979Z" fill="#7C2DDB"/>
<path d="M123.857 9.52979H114.343V95.4357H123.857V9.52979Z" fill="#7C2DDB"/>
<path d="M133.406 9.52979H123.892V95.4357H133.406V9.52979Z" fill="#7C2DDB"/>
<path d="M142.92 9.52979H133.406V95.4357H142.92V9.52979Z" fill="#7C2DDB"/>
<path d="M152.469 9.52979H142.954V95.4357H152.469V9.52979Z" fill="#7C2DDB"/>
<path d="M161.983 9.52979H152.469V95.4357H161.983V9.52979Z" fill="#7C2DDB"/>
<path d="M171.531 9.52979H162.017V95.4357H171.531V9.52979Z" fill="#7C2DDB"/>
<path d="M181.046 9.52979H171.531V95.4357H181.046V9.52979Z" fill="#7C2DDB"/>
<path d="M190.594 9.52979H181.08V95.4357H190.594V9.52979Z" fill="#7C2DDB"/>
<path d="M200.108 9.52979H190.594V95.4357H200.108V9.52979Z" fill="#7C2DDB"/>
<path d="M209.622 9.52979H200.108V95.4357H209.622V9.52979Z" fill="#7C2DDB"/>
<path d="M219.171 9.52979H209.657V95.4357H219.171V9.52979Z" fill="#7C2DDB"/>
<path d="M228.685 9.52979H219.171V95.4357H228.685V9.52979Z" fill="#7C2DDB"/>
<path d="M238.234 9.52979H228.72V95.4357H238.234V9.52979Z" fill="#7C2DDB"/>
<path d="M247.748 9.52979H238.234V95.4357H247.748V9.52979Z" fill="#7C2DDB"/>
<path d="M285.909 9.52979H247.783V95.4357H285.909V9.52979Z" fill="#7C2DDB"/>
<path d="M295.423 9.52979H285.909V95.4357H295.423V9.52979Z" fill="#7C2DDB"/>
<path d="M19.0281 38.188H9.51404V66.8117H19.0281V38.188Z" fill="#7C2DDB"/>
<path d="M314.451 38.188H304.937V66.8117H314.451V38.188Z" fill="#7C2DDB"/>
<path d="M295.423 85.9058H28.577V95.4354H295.423V85.9058Z" fill="#E500C2"/>
<path d="M19.0628 85.9058H28.5769L28.5769 57.282H19.0628L19.0628 85.9058Z" fill="#E500C2"/>
<path d="M295.458 85.9058H304.972V57.282H295.458V85.9058Z" fill="#E500C2"/>
<path d="M28.577 95.4702H38.0911V76.3761H28.577V95.4702Z" fill="#E500C2"/>
<path d="M38.1258 95.4355H47.6399V85.9059H38.1258V95.4355Z" fill="#E500C2"/>
<path d="M9.54872 66.8467H19.063L19.063 38.223H9.54872L9.54872 66.8467Z" fill="#E500C2"/>
<path d="M19.0628 28.6587H28.5769V19.1291H19.0628V28.6587Z" fill="#F08CFF"/>
<path d="M28.577 28.6587H38.0911V19.1291H28.577V28.6587Z" fill="white"/>
<path d="M19.0628 38.188H28.5769V28.6584H19.0628V38.188Z" fill="white"/>
<path d="M295.458 28.6587H304.972V19.1291H295.458V28.6587Z" fill="#F08CFF"/>
<path d="M285.909 76.3413H295.423V66.8117H285.909V76.3413Z" fill="#F08CFF"/>
<path d="M266.846 86.0449H285.909V76.5153H266.846V86.0449Z" fill="#F08CFF"/>
<path d="M285.909 85.9058H295.423V76.3761H285.909V85.9058Z" fill="#E500C2"/>
<path d="M304.972 66.8467H314.486V38.223H304.972V66.8467Z" fill="#E500C2"/>
<path d="M295.423 9.52979H28.577V19.0594H295.423V9.52979Z" fill="#F08CFF"/>
<path d="M38.1258 19.0942L57.1887 19.0942V9.56459L38.1258 9.56459V19.0942Z" fill="white"/>
<path d="M107 61H105H103H101H99V59V57H101H103H105H107H109V59V61H107ZM109 57V55V53H111H113V55V57H111H109ZM99 57H97H95V55V53V51V49V47H97H99V49V51V53V55V57ZM111 51H109V49V47H111H113V49V51H111ZM109 47H107H105H103H101H99V45V43H101H103H105H107H109V45V47ZM125 61H123H121H119V59V57H121H123H125H127V59V61H125ZM127 57V55V53V51V49V47H129H131V49V51V53V55V57H129H127ZM119 57H117H115V55V53V51V49V47H117H119V49V51V53V55V57ZM127 47H125H123H121H119V45V43H121H123H125H127V45V47ZM149 61H147V59V57V55V53V51V49V47H149H151V49V51V53V55V57V59V61H149ZM135 61H133V59V57V55V53V51V49V47V45V43H135H137H139H141H143H145H147V45V47H145H143H141H139H137V49V51V53V55V57V59V61H135ZM167 61H165H163H161H159H157V59V57H159H161H163H165V55H167H169V57V59V61H167ZM157 57H155H153V55V53V51V49V47H155H157V45V43H159H161H163H165H167H169V45V47V49V51H167H165V53H163H161H159H157V55V57ZM163 49H165V47H163H161H159H157V49H159H161H163ZM183 61H181H179H177H175V59V57H177H179H181H183H185V59V61H183ZM185 57V55V53H187H189V55V57H187H185ZM175 57H173H171V55V53V51V49V47H173H175V49V51V53V55V57ZM187 51H185V49V47H187H189V49V51H187ZM185 47H183H181H179H177H175V45V43H177H179H181H183H185V45V47ZM199 61H197V59V57H199H201V59V61H199ZM197 57H195H193V55V53V51V49V47H191V45V43H193V41V39H195H197V41V43H199V45V47H197V49V51V53V55V57ZM219 61H217H215H213H211H209H207V59V57H205H203V55V53H205H207V51V49H209H211H213H215H217V47H219H221V49V51V53V55V57V59V61H219ZM215 57H217V55V53H215H213H211H209H207V55V57H209H211H213H215ZM217 47H215H213H211H209H207H205H203V45V43H205H207H209H211H213H215H217V45V47ZM235 49V47H233H231H229V49H227V51V53V55V57V59V61H225H223V59V57V55V53V51V49V47V45V43H225H227V45H229V43H231H233H235V45H237V47V49H235Z" fill="white"/>
</g>
<defs>
<clipPath id="clip0_175_4778">
<rect width="324" height="105" fill="white"/>
</clipPath>
</defs>
</svg>
