<svg width="100" height="100" viewBox="0 0 100 100" fill="none" xmlns="http://www.w3.org/2000/svg">
<rect width="100" height="100" rx="50" fill="#261B2D"/>
<path d="M47.0909 55.0227V54.6364C47.0985 53.3106 47.2159 52.2538 47.4432 51.4659C47.678 50.678 48.0189 50.0417 48.4659 49.5568C48.9129 49.072 49.4508 48.6326 50.0795 48.2386C50.5492 47.9356 50.9697 47.6212 51.3409 47.2955C51.7121 46.9697 52.0076 46.6098 52.2273 46.2159C52.447 45.8144 52.5568 45.3674 52.5568 44.875C52.5568 44.3523 52.4318 43.8939 52.1818 43.5C51.9318 43.1061 51.5947 42.803 51.1705 42.5909C50.7538 42.3788 50.2917 42.2727 49.7841 42.2727C49.2917 42.2727 48.8258 42.3826 48.3864 42.6023C47.947 42.8144 47.5871 43.1326 47.3068 43.5568C47.0265 43.9735 46.875 44.4924 46.8523 45.1136H42.2159C42.2538 43.5985 42.6174 42.3485 43.3068 41.3636C43.9962 40.3712 44.9091 39.6326 46.0455 39.1477C47.1818 38.6553 48.4356 38.4091 49.8068 38.4091C51.3144 38.4091 52.6477 38.6591 53.8068 39.1591C54.9659 39.6515 55.875 40.3674 56.5341 41.3068C57.1932 42.2462 57.5227 43.3788 57.5227 44.7045C57.5227 45.5909 57.375 46.3788 57.0795 47.0682C56.7917 47.75 56.3864 48.3561 55.8636 48.8864C55.3409 49.4091 54.7235 49.8826 54.0114 50.3068C53.4129 50.6629 52.9205 51.0341 52.5341 51.4205C52.1553 51.8068 51.8712 52.2538 51.6818 52.7614C51.5 53.2689 51.4053 53.8939 51.3977 54.6364V55.0227H47.0909ZM49.3409 62.2955C48.5833 62.2955 47.9356 62.0303 47.3977 61.5C46.8674 60.9621 46.6061 60.3182 46.6136 59.5682C46.6061 58.8258 46.8674 58.1894 47.3977 57.6591C47.9356 57.1288 48.5833 56.8636 49.3409 56.8636C50.0606 56.8636 50.6932 57.1288 51.2386 57.6591C51.7841 58.1894 52.0606 58.8258 52.0682 59.5682C52.0606 60.0682 51.928 60.5265 51.6705 60.9432C51.4205 61.3523 51.0909 61.6818 50.6818 61.9318C50.2727 62.1742 49.8258 62.2955 49.3409 62.2955Z" fill="white"/>
</svg>
